<?xml version="1.0" encoding="utf-8"?>
<!-- Generator: Adobe Illustrator 14.0.0, SVG Export Plug-In  -->
<!DOCTYPE svg PUBLIC "-//W3C//DTD SVG 1.1//EN" "http://www.w3.org/Graphics/SVG/1.1/DTD/svg11.dtd" [
	<!ENTITY ns_flows "http://ns.adobe.com/Flows/1.0/">
]>
<svg version="1.1"
	 xmlns="http://www.w3.org/2000/svg" xmlns:xlink="http://www.w3.org/1999/xlink" xmlns:a="http://ns.adobe.com/AdobeSVGViewerExtensions/3.0/"
	 x="0px" y="0px" width="600px" height="500px" viewBox="-7.762 -28.797 600 500" enable-background="new -7.762 -28.797 600 500"
	 xml:space="preserve">
<defs>
</defs>
<g>
	<path fill="#F2F2F2" d="M540.399,427.301c0,0-10.399-35.101-49.399-36.4s-68.9,14.3-81.9,18.2c-13,3.899-91,2.6-128.7-9.101
		c-37.7-11.699-75.399,11.7-84.5,14.301c-9.1,2.6-45.5-32.5-63.7-5.2c0,0-19.5-3.9-18.199,5.2c0,0-44.2,18.199-48.101,36.399
		c-0.959,4.477,7.862,11.672,53.314,13.944c139.38,6.966,454.922,0.397,466.686-7.444C601.5,446.801,562.5,427.301,540.399,427.301z
		"/>
	<g>
		<path fill="#E6E6E6" d="M542.864,426.881c-2.789-9.267-8.99-17.754-16.075-24.176c-16.893-15.312-40.638-14.928-61.886-11.914
			c-11.664,1.654-23.095,4.816-34.218,8.645c-7.546,2.597-14.877,5.875-22.506,8.222c-5.095,1.567-11.085,1.378-16.347,1.567
			c-9.272,0.335-18.562,0.204-27.833-0.091c-21.896-0.696-43.918-2.471-65.457-6.569c-10.466-1.992-20.595-5.963-31.209-7.016
			c-12.657-1.256-25.132,0.438-37.351,3.773c-9.783,2.67-19.102,6.686-28.335,10.819c-1.832,0.82-4.507,2.587-6.561,2.631
			c-2.666,0.056-5.794-1.946-8.095-3.075c-13.764-6.756-30.132-17.216-45.91-10.698c-4.688,1.937-8.296,5.55-11.15,9.65
			c1.091-0.385,2.182-0.769,3.273-1.152c-6.225-1.217-22.471-2.99-21.67,7.224c0.515-0.621,1.03-1.242,1.544-1.863
			c-12.278,5.077-24.268,11.521-34.914,19.474c-5.509,4.115-21.151,16.909-11.754,24.102c4.179,3.199,9.919,4.498,14.933,5.638
			c11.007,2.504,22.433,3.349,33.671,4.034c16.999,1.036,34.048,1.48,51.071,1.919c82.443,2.124,164.994,1.501,247.439-0.138
			c35.748-0.71,71.499-1.658,107.219-3.266c20.061-0.903,40.698-1.136,60.549-4.482c6.853-1.155,13.754-6.088,8.939-13.729
			c-4.375-6.942-13.687-11.114-20.911-14.184c-8.939-3.8-18.78-6.462-28.533-6.59c-2.668-0.035-4.096,3.289-0.781,3.332
			c10.217,0.135,20.338,3.385,29.555,7.603c5.828,2.667,16.715,7.759,17.452,15.225c0.143,1.434-0.821,2.674-1.783,3.593
			c-0.68,0.649-1.221,0.824-0.845,0.667c-1.101,0.459-0.685,0.271-1.838,0.519c-2.66,0.571-5.379,0.891-8.078,1.204
			c-23.68,2.748-47.688,3.364-71.489,4.283c-80.399,3.102-160.921,4.056-241.375,3.843c-38.522-0.103-77.055-0.524-115.558-1.829
			c-19.895-0.674-40.116-0.904-59.72-4.596c-5.398-1.017-11.76-2.199-16.241-5.629c-3.481-2.664-0.761-6.516,1.264-9.486
			c6.139-9.003,16.978-15.062,26.292-20.212c5.594-3.094,11.366-5.963,17.276-8.406c0.798-0.33,1.621-0.894,1.544-1.863
			c-0.47-6.002,11.112-3.883,14.728-3.177c1.164,0.228,2.573-0.146,3.273-1.152c12.488-17.939,33.866-4.834,48.652,2.631
			c4.492,2.269,9.496,4.996,14.592,3.274c7.562-2.556,14.696-6.503,22.173-9.332c12.297-4.651,25.202-7.649,38.39-7.713
			c12.076-0.058,23.14,4.185,34.781,6.661c20.91,4.447,42.487,6.173,63.808,7.146c15.847,0.724,32.133,1.327,47.921-0.637
			c5.306-0.66,10.225-2.729,15.186-4.624c9.926-3.794,19.914-7.358,30.234-9.938c22.672-5.667,50.607-9.141,70.309,6.108
			c7.719,5.975,14.576,15.127,17.424,24.592C538.585,429.882,543.484,428.944,542.864,426.881z"/>
	</g>
</g>
<path fill="#4D4D4D" d="M392.199,465.976c0,4.487-39.859,4.225-87.425,4.225s-86.125,0.263-86.125-4.225
	c0-4.488,38.56-8.125,86.125-8.125S392.199,461.487,392.199,465.976z"/>
<g>
	<path fill="#534741" d="M280.128,430.551c0,2.512,22.534,2.512,22.534,0c0-2.513-4.034-4.551-10.618-4.551
		C285.463,426,280.128,428.038,280.128,430.551z"/>
	<g>
		<path d="M279.558,430.488c0.581,2.439,6.822,2.208,8.469,2.301c4.497,0.251,10.081,0.619,14.338-1.116
			c3.781-1.541-3.642-5.17-4.627-5.458c-4.077-1.195-17.137-1.847-18.196,4.163c-0.085,0.482,1.071,0.926,1.173,0.346
			c0.982-5.573,13.469-4.443,16.995-3.695c1.792,0.381,6.392,3.042,3.046,4.112c-1.176,0.376-2.471,0.472-3.692,0.599
			c-1.906,0.199-15.764,1.394-16.364-1.126C280.586,430.145,279.405,429.849,279.558,430.488z"/>
	</g>
</g>
<g>
	<path fill="#534741" d="M305.75,429.575c0,1.383,7.385,2.4,13.345,1.79c4.871-0.499,9.297-2.771,9.297-3.901
		c0-2.512-4.686-4.117-11.269-4.117C310.542,423.347,305.75,427.062,305.75,429.575z"/>
	<g>
		<path fill="#4D4D4D" d="M305.303,429.525c1.316,3.233,8.59,2.564,11.158,2.551c2.56-0.013,12.983-0.8,12.314-5.036
			c-0.59-3.739-7.721-4.039-10.233-4.201c-4.269-0.274-12.519,1.028-13.273,6.428c-0.063,0.459,0.875,1.245,0.963,0.617
			c1.083-7.751,15.874-6.806,20.644-4.157c3.263,1.812-2.892,3.899-3.5,4.121c-2.321,0.851-4.841,1.048-7.286,1.147
			c-1.46,0.061-9.185,0.365-9.892-1.37C306.002,429.144,304.994,428.768,305.303,429.525z"/>
	</g>
</g>
<path fill="#998675" stroke="#4D4D4D" stroke-width="2" d="M284.517,404.551c0,0,6.391,23.778,5.958,26.812s8.938,0,8.938,0
	l-2.763-25.08L284.517,404.551"/>
<path fill="#998675" stroke="#4D4D4D" stroke-width="2" d="M322.217,405.417c0,0-5.092,22.426-4.659,25.46s-8.991,0.216-8.991,0.216
	l2.817-23.942L322.217,405.417"/>
<g>
	<path fill="#FBB03B" d="M302.501,430.007c0,0-4.117,29.143-1.95,31.31c1.285,1.284-15.068,6.741-21.182-2.784
		c-4.195-6.534,1.246-29.064,1.246-29.064S292.532,437.158,302.501,430.007z"/>
	<g>
		<path fill="#4D4D4D" d="M301.662,429.759c-0.727,5.167-1.342,10.351-1.863,15.542c-0.371,3.701-0.677,7.417-0.74,11.138
			c-0.025,1.521,0.995,4.792-0.176,5.371c-3.688,1.824-8.607,1.844-12.496,0.888c-5.876-1.445-7.555-6.313-7.735-11.671
			c-0.239-7.088,1.158-14.433,2.802-21.311c-0.42,0.12-0.841,0.24-1.262,0.36c7.023,4.409,15.886,5.048,22.928,0.498
			c0.883-0.57-0.474-1.63-1.24-1.135c-6.418,4.147-14.505,3.398-20.843-0.58c-0.389-0.245-1.136-0.163-1.262,0.36
			c-1.892,7.917-3.486,16.536-2.655,24.683c0.935,9.166,10.304,11.715,18.186,10.523c1.537-0.232,5.627-0.817,6.154-2.715
			c0.145-0.519-0.475-1.465-0.55-1.986c-0.268-1.845-0.127-3.781-0.052-5.635c0.324-7.965,1.371-15.946,2.48-23.835
			C303.474,429.307,301.794,428.821,301.662,429.759z"/>
	</g>
</g>
<g>
	<path fill="#FBB03B" d="M278.017,455.466c0,5.267,6.888,9.534,15.383,9.534c4.846,0,11.769,1.212,14.587-0.958
		c2.125-1.636,0.798-6.313,0.798-8.576c0-5.265-6.888-9.532-15.385-9.532C284.904,445.934,278.017,450.201,278.017,455.466z"/>
	<g>
		<path fill="#4D4D4D" d="M277.07,454.872c0.589,6.78,7.652,9.89,13.554,10.895c4.679,0.797,10.245,0.854,14.976,0.375
			c4.062-0.411,4.695-3.268,4.439-6.806c-0.503-6.957-3.552-11.777-10.81-13.541c-7.176-1.744-21.292-0.931-22.146,8.893
			c-0.07,0.811,1.804,2.26,1.865,1.557c1.077-12.393,28.243-12.968,28.941-0.421c0.138,2.478,1.074,5.188-0.756,7.304
			c-1.606,1.858-6.482,1.225-8.446,1.146c-6.104-0.244-18.968,0.501-19.725-8.214C278.9,455.331,276.98,453.843,277.07,454.872z"/>
	</g>
</g>
<path fill="#F7931E" d="M281.483,431.093c0,0-5.417,21.341-0.866,28.708c0,0,2.601,2.707,5.634,3.25
	c3.033,0.542-9.779-21.479,2.03-29.494C288.281,433.557,282.242,431.635,281.483,431.093z"/>
<g>
	<path fill="#FBB03B" d="M306.491,429.63c0,0,4.766,29.682,2.599,31.849c-1.285,1.285,15.068,6.741,21.182-2.784
		c4.195-6.534-2.097-30.419-2.097-30.419S316.459,436.781,306.491,429.63z"/>
	<g>
		<path fill="#4D4D4D" d="M305.627,429.577c1.217,7.605,2.277,15.258,2.913,22.935c0.171,2.066,0.281,4.141,0.234,6.215
			c-0.021,0.96-0.646,1.997-0.62,2.847c0.066,2.08,4.929,2.741,6.219,2.985c8.39,1.594,17.215-1.673,18.118-10.931
			c0.812-8.324-1.391-17.463-3.487-25.492c-0.157-0.6-0.999-0.746-1.449-0.428c-6.131,4.335-14.153,5.486-20.642,1.313
			c-0.884-0.569-1.798,0.604-0.844,1.217c7.111,4.574,15.966,3.384,22.726-1.396c-0.482-0.143-0.966-0.285-1.449-0.428
			c1.72,6.58,2.98,13.354,3.427,20.144c0.327,4.96,0.078,9.495-4.162,12.705c-4.051,3.067-10.379,2.555-14.936,1.129
			c-2.463-0.771-1.296-1.098-1.172-3.561c0.184-3.659-0.309-7.399-0.692-11.03c-0.641-6.059-1.493-12.104-2.455-18.119
			C307.209,428.771,305.471,428.598,305.627,429.577z"/>
	</g>
</g>
<g>
	<path fill="#FBB03B" d="M331.624,455.629c0,5.266-6.888,9.534-15.383,9.534c-4.431,0-11.024,1.439-13.832-0.418
		c-2.575-1.705-1.553-6.597-1.553-9.116c0-5.265,6.888-9.533,15.385-9.533C324.736,446.096,331.624,450.364,331.624,455.629z"/>
	<g>
		<path fill="#4D4D4D" d="M330.691,454.851c-0.517,5.947-6.765,8.238-11.86,9.106c-3.582,0.61-16.46,2.723-17.183-2.292
			c-0.735-5.107,0.723-9.463,5.137-12.198c6.004-3.721,23.046-4.172,23.893,5.568c0.062,0.729,1.982,2.217,1.893,1.188
			c-0.642-7.389-8.827-10.417-15.177-11.058c-4.678-0.473-9.457,0.703-13.425,3.162c-3.366,2.085-3.923,5.079-4.16,8.679
			c-0.502,7.616,3.023,9.951,10.318,9.591c7.278-0.36,21.552-0.082,22.43-10.189C332.627,455.597,330.753,454.147,330.691,454.851z"
			/>
	</g>
</g>
<path fill="#F7931E" d="M327.634,430.008c0,0,5.94,22.588,1.39,29.955c0,0-3.91,2.221-6.942,2.763
	c-3.033,0.542,10.537-21.885-1.272-29.9C320.809,432.825,326.876,430.551,327.634,430.008z"/>
<g>
	<path fill="#736357" d="M285.6,418.851c15.306,15.306,53.95,9.75,47.45-10.4c-6.5-20.149,0.649-18.85,5.2-20.8
		c4.55-1.95,41.6,7.15,13.649,41.6c-27.95,34.45-76.05,0-78.649-4.55c-2.601-4.55,0.649-12.35,0.649-12.35S283,393.5,302.824,398.7
		c19.825,5.2-3.899,5.2-3.899,5.2S277.8,411.051,285.6,418.851z"/>
	<g>
		<path fill="#4D4D4D" d="M285.112,419.411c10.675,10.222,30.538,12.393,43.084,4.392c5.154-3.287,7.192-8.748,5.844-14.607
			c-1.194-5.188-3.652-10.37-2.55-15.814c0.584-2.881,3.303-3.676,5.73-4.436c10.13-3.174,23.218,6.061,24.207,16.356
			c1.087,11.301-8.782,23.462-16.912,30.094c-8.418,6.867-19.296,8.911-29.879,7.841c-13.605-1.376-27.518-7.853-38.144-16.368
			c-9.535-7.64,1.491-20.881,8.701-25.26c3.73-2.265,8.014-3.071,12.325-2.938c2.739,0.085,5.409,0.863,8.021,1.625
			c0.707,0.206,4.979,1.385,3.75,1.83c-3.367,1.219-7.41-0.154-10.628,0.95C292.76,405.103,277.943,411.403,285.112,419.411
			c0.762,0.851,1.67-0.346,0.976-1.121c-5.657-6.319,8.563-11.975,13.047-13.547c3.216-1.127,7.996,0.396,11.58-1.34
			c4.516-2.186-9.268-5.855-9.356-5.872c-8.422-1.564-16.095,0.753-22.32,6.592c-6.573,6.165-11.344,17.429-3.181,24.15
			c11.875,9.779,28.119,16.422,43.492,16.95c19.855,0.682,37.974-14.215,43.014-33.251c3.259-12.308-6.003-21.582-17.145-24.608
			c-3.731-1.014-6.299-0.769-9.875,0.352c-5.062,1.585-5.993,5.569-5.512,10.515c0.481,4.95,2.998,9.543,3.179,14.488
			c0.16,4.391-2.964,7.829-6.42,10.032c-7.579,4.834-18.137,4.809-26.592,2.846c-5.176-1.201-10.065-3.623-13.912-7.307
			C285.267,417.505,284.352,418.684,285.112,419.411z"/>
	</g>
</g>
<path fill="#736357" d="M285.168,346.159c-2.322,1.534-7.584,22.741-7.584,24.157c0,4.068,12.357-9.533,25.998-9.533
	c13.642,0,24.7-5.898,24.7-9.967c0-4.067-11.059-8.666-24.7-8.666C294.689,342.15,289.517,343.286,285.168,346.159z"/>
<g>
	<path fill="#998675" d="M333.917,375.95c0,20.342-13.969,36.833-31.2,36.833s-31.2-16.491-31.2-36.833s13.969-26.433,31.2-26.433
		S333.917,355.608,333.917,375.95z"/>
	<g>
		<path fill="#4D4D4D" d="M332.751,375.561c-0.286,16.639-10.106,33.961-27.916,36.096c-19.219,2.304-31.262-17.287-32.125-34.051
			c-0.408-7.913,1.83-15.857,8.037-21.057c5.417-4.538,13.042-5.657,19.852-5.979c7.447-0.353,15.371,0.503,21.964,4.189
			c7.66,4.282,10.045,12.84,10.188,21.055c0.021,1.156,2.359,1.719,2.334,0.273c-0.141-8.093-2.384-15.627-8.744-20.955
			c-6.132-5.137-14.776-6.393-22.487-6.605c-8.026-0.222-16.33,0.887-23.257,5.175c-7.554,4.676-10.1,13.464-10.246,21.859
			c-0.315,18.163,12.148,36.825,31.231,38.195c20.442,1.468,33.191-19.267,33.502-37.416
			C335.104,375.174,332.772,374.286,332.751,375.561z"/>
	</g>
</g>
<g>
	<path fill="#C7B299" d="M177.916,316.15l15.6-16.467c0,0,17.335-104.867,101.401-107.467c84.065-2.6,103.133,83.199,103.133,83.199
		l3.899,12.135l25.567,16.467l-16.467,6.065l6.5,11.268h-15.167l-9.533,12.133c0,0-65.866,47.666-158.6,13l-19.066-7.8l-4.334-6.934
		l-23.4,2.601l9.534-14.733l-10.834-1.734L177.916,316.15z"/>
	<g>
		<path fill="#4D4D4D" d="M179.326,316.743c4.169-4.4,8.338-8.802,12.507-13.202c1.635-1.727,3.189-2.857,3.631-5.162
			c1.523-7.949,3.809-15.77,6.46-23.408c10.09-29.07,27.71-57.659,55.781-72.182c34.645-17.924,79.287-9.766,106.914,16.971
			c15.173,14.684,26.462,34.938,31.58,55.441c0.564,2.261,1.384,4.465,2.097,6.683c1,3.113,1.166,5.889,3.925,7.665
			c7.991,5.146,15.981,10.293,23.972,15.439c0.197-0.687,0.394-1.372,0.591-2.059c-5.489,2.022-10.978,4.044-16.467,6.065
			c-0.718,0.265-1.244,1.089-0.832,1.803c2.167,3.756,4.333,7.512,6.5,11.268c0.579-0.672,1.158-1.344,1.738-2.016
			c-2.693,0-5.386,0-8.078,0c-2.226,0-5.883-0.751-7.995,0.213c-1.731,0.79-3.15,3.643-4.263,5.06
			c-1.967,2.502-3.933,5.005-5.899,7.507c-0.127,0.162-3.492,2.226-4.602,2.888c-4.593,2.743-9.407,5.122-14.283,7.312
			c-42.242,18.967-90.463,18.721-133.823,3.58c-5.791-2.021-11.424-4.514-17.099-6.835c-1.21-0.495-2.421-0.99-3.632-1.486
			c-0.782-0.319-1.849-1.198-1.373-0.437c-1.42-2.272-2.841-4.544-4.261-6.816c-0.266-0.426-0.916-0.639-1.393-0.586
			c-7.8,0.867-15.6,1.734-23.4,2.601c0.482,0.527,0.964,1.054,1.445,1.58c3.178-4.911,6.356-9.822,9.534-14.733
			c0.474-0.731-0.352-1.445-1.009-1.551c-6.403-1.024-12.723-2.132-19.067-3.467c-1.732-0.364-3.463,2.07-1.218,2.543
			c6.344,1.335,12.665,2.441,19.067,3.467c-0.336-0.518-0.672-1.034-1.009-1.551c-3.178,4.911-6.356,9.822-9.534,14.733
			c-0.585,0.904,0.685,1.664,1.445,1.58c6.061-0.674,12.121-1.348,18.181-2.021c1.33-0.148,2.66-0.296,3.99-0.443
			c2.084-0.232-0.013-0.48,0.112-0.28c1.056,1.689,2.709,6.151,4.624,6.935c16.482,6.743,32.698,13.141,50.234,16.785
			c38.727,8.049,80.267,3.31,115.77-14.311c3.525-1.75,6.975-3.66,10.33-5.719c1.161-0.712,2.918-1.474,3.79-2.583
			c3.146-4.003,6.291-8.007,9.437-12.01c-0.924,1.176-1.993,0.646,0.304,0.646c1.75,0,3.501,0,5.251,0c2.692,0,5.385,0,8.077,0
			c0.97,0,2.369-0.922,1.738-2.016c-2.167-3.756-4.333-7.512-6.5-11.268c-0.277,0.601-0.555,1.201-0.832,1.803
			c5.489-2.022,10.978-4.044,16.467-6.065c0.746-0.275,1.488-1.48,0.591-2.059c-4.815-3.102-9.631-6.203-14.447-9.305
			c-2.855-1.839-5.711-3.679-8.567-5.518c-0.747-0.481-1.494-0.962-2.24-1.443c-0.46-0.296-0.121-0.216,0.039,0.281
			c-0.194-0.603-0.388-1.205-0.581-1.808c-1.984-6.175-3.682-12.465-5.762-18.604c-8.454-24.953-24.335-48.138-47.017-62.071
			c-31.169-19.145-73.807-18.442-104.093,2.01c-24.515,16.554-39.814,44.251-48.818,71.782c-2.155,6.589-4.01,13.312-5.331,20.121
			c-0.078,0.405-0.154,0.811-0.223,1.218c0.165-0.971,0.049-0.35-0.56,0.293c-0.93,0.981-1.86,1.964-2.79,2.945
			c-3.982,4.203-7.964,8.406-11.945,12.609C175.019,317.127,178.215,317.916,179.326,316.743z"/>
	</g>
</g>
<g>
	<path fill="#998675" d="M358.183,228.617c16.466,25.133,77.134,65.867,77.134,65.867c-4.333-12.134,0-51.134,0-51.134
		c-40.732-26.866-96.2-42.467-96.2-42.467L358.183,228.617z"/>
	<g>
		<path fill="#4D4D4D" d="M356.466,229.371c11.137,16.689,28.338,29.705,43.988,41.891c10.832,8.434,21.938,16.579,33.334,24.239
			c1.075,0.723,3.775-0.178,3.245-1.771c-3.124-9.387-1.998-20.664-1.531-30.372c0.328-6.823,0.849-13.653,1.597-20.445
			c-0.003-0.229-0.087-0.422-0.254-0.579c-29.231-19.12-62.886-33.167-96.487-42.651c-0.8-0.226-3.901,0.582-2.958,1.955
			C343.755,210.882,350.11,220.126,356.466,229.371c0.938,1.365,4.3-0.247,3.434-1.508c-6.355-9.244-12.711-18.489-19.066-27.733
			c-0.986,0.651-1.972,1.303-2.958,1.955c24.558,6.931,48.67,16.641,71.402,28.165c4.267,2.163,8.467,4.454,12.622,6.822
			c1.501,0.856,11.696,6.14,11.603,7.011c-0.451,4.178-0.797,8.368-1.102,12.559c-0.889,12.21-2.744,26.748,1.199,38.598
			c1.082-0.59,2.163-1.181,3.245-1.771c-10.742-7.22-21.196-14.898-31.455-22.785c-16.084-12.365-34.093-25.739-45.49-42.819
			C358.979,226.485,355.611,228.091,356.466,229.371z"/>
	</g>
</g>
<g>
	<path fill="#998675" d="M245.083,232.517c-1.745,1.95-4.255,4.495-7.317,7.457c-22.803,22.054-76.235,67.226-72.416,61.877
		c4.333-6.067-2.6-47.666,2.6-49.4c5.2-1.734,72.801-42.466,72.801-42.466s15.601-13.867,30.334-13.867L245.083,232.517"/>
	<g>
		<path fill="#4D4D4D" d="M243.959,232.51c-13.745,15.087-29.89,28.331-45.312,41.643c-7.056,6.091-14.164,12.122-21.361,18.046
			c-3.607,2.968-7.781,7.002-11.652,9.123c1.289-0.706,1.062,0.755,1.81-1.114c0.374-0.936,0.527-1.969,0.676-2.957
			c0.544-3.608,0.394-7.356,0.311-10.991c-0.194-8.459-0.947-16.904-0.882-25.369c0.02-2.56-0.037-5.493,0.95-7.903
			c-0.257,0.627-1.165,0.601,0.364-0.118c0.802-0.376,1.585-0.797,2.367-1.213c5.188-2.757,10.263-5.737,15.344-8.686
			c12.507-7.257,24.93-14.658,37.342-22.074c5.975-3.57,13.871-7.536,18.694-11.515c2.897-2.39,6.022-4.476,9.251-6.386
			c2.477-1.465,5.106-2.661,7.788-3.694c2.15-0.829,8.778-1.119,10.031-2.873c-2.298,3.218-4.597,6.435-6.895,9.652
			c-6.363,8.908-12.727,17.816-19.089,26.724c-1.118,1.563,2.25,0.155,2.771-0.576c8.667-12.133,17.334-24.266,26.001-36.399
			c0.233-0.327,0.416-0.893-0.205-0.875c-9.918,0.285-19.062,5.051-27.027,10.647c-1.924,1.352-3.799,2.781-5.565,4.335
			c1.558-1.371-1.043,0.506-1.546,0.808c-11.743,7.062-23.507,14.087-35.3,21.064c-11.127,6.582-22.186,13.75-33.838,19.384
			c-3.661,1.77-4.287,4.147-4.582,8.135c-0.598,8.097,0.295,16.355,0.631,24.448c0.216,5.2,0.512,10.546-0.267,15.714
			c-0.119,0.784-2.21,4.311-0.303,3.904c2.025-0.431,3.957-2.295,5.542-3.502c4.029-3.07,7.929-6.314,11.827-9.548
			c10.84-8.989,21.498-18.201,32.058-27.517c11.022-9.723,22.403-19.425,32.314-30.305
			C247.839,230.732,244.699,231.697,243.959,232.51L243.959,232.51z"/>
	</g>
</g>
<radialGradient id="SVGID_1_" cx="297.9512" cy="312.793" r="63.7249" gradientTransform="matrix(1 0 0 0.5 0 156.3965)" gradientUnits="userSpaceOnUse">
	<stop  offset="0" style="stop-color:#FDFDFE"/>
	<stop  offset="1" style="stop-color:#FDFDFE;stop-opacity:0"/>
</radialGradient>
<path fill="url(#SVGID_1_)" d="M377.323,312.795c0,23.571-35.534,42.681-79.374,42.681c-43.838,0-79.369-19.109-79.369-42.681
	c0-23.576,35.531-42.685,79.369-42.685C341.789,270.11,377.323,289.219,377.323,312.795z"/>
<path fill="#736357" stroke="#4D4D4D" stroke-width="2" d="M333.652,356.421c0,0,1.826,15.893,0.436,28.871
	c-1.39,12.978-28.554-23.357-39.804-19.995c-4.203,1.255-8.106-1.61-8.477-5.554c-0.539-5.757,4.498-13.104,10.967-7.403
	c0.958,0.846,2.608,3.677,3.691,5.082c0,0,3.192,0.233,10.362,4.803c4.334,2.761,8.267,4.855,14.296,11.043
	c0,0,0.639-10.795-0.796-15.408L333.652,356.421z"/>
<path fill="#736357" stroke="#4D4D4D" stroke-width="2" d="M268.965,357.644c0,0-1.782,14.146-0.394,27.125
	c0.953,8.895,11.503-2.229,21.667-9.847c4.668-3.496,9.255-7.28,12.796-6.223c4.204,1.255,8.107-1.61,8.477-5.554
	c0.539-5.756-4.498-13.104-10.968-7.403c-0.957,0.846-2.607,3.677-3.691,5.08c0,0-13.286,4.434-19.316,10.624
	c0,0-0.792-8.485,0.643-13.1L268.965,357.644z"/>
<path fill="#736357" stroke="#736357" d="M312.818,251.92c-1.087,3.948-2.877,28.214-2.877,33.896
	c0,22.737,14.336,30.769,36.833,30.769s42.033-24.932,42.033-47.669c0-22.734-27.336-21.666-49.833-21.666
	C322.102,247.25,316.076,240.067,312.818,251.92z"/>
<path fill="#736357" stroke="#736357" d="M290.305,254.086c1.087,3.949,0.276,20.414,0.276,26.098
	c0,22.735-15.636,38.566-38.133,38.566c-10.831,0-24.178-0.673-32.412-7.953c-8.869-7.842-12.222-22.724-12.222-34.514
	c0-22.734,29.938-26.866,52.434-26.866C277.122,249.417,287.047,242.234,290.305,254.086z"/>
<polygon fill="#736357" points="288.849,236.851 276.717,245.085 245.516,252.885 230.783,260.25 289.717,255.916 "/>
<g>
	<g>
		<g>
			<g>
				<path fill="#646464" d="M320.917,310.083c5.316,0.393,8.898,0.678,15.221,0.715c6.886-0.539,41.062,2.285,40.991,2.857
					c-0.007,0.017,8.501,1.125,17.64,3.337c9.184,2.086,18.717,5.852,21.717,7.424c5.593,2.792,8.767,4.371,13.197,7.334
					c-3.621-3.916-6.627-6.207-12.351-9.091c-3.079-1.632-12.812-5.47-22.104-7.575c-9.254-2.234-17.829-3.342-17.823-3.358
					c0.054-0.578-34.341-3.453-41.254-2.878C329.796,308.841,326.183,309.23,320.917,310.083z"/>
			</g>
		</g>
	</g>
</g>
<g>
	<path fill="#FFFFFF" d="M283.217,264.585c0,0-49.834-0.435-63.701-9.101c0,0-7.8,33.8,12.134,48.533c0,0,35.101-4.768,36.834-2.167
		C270.216,304.45,281.483,285.385,283.217,264.585z"/>
	<g>
		<path fill="#4D4D4D" d="M284.067,263.957c-8.389-0.079-16.784-0.531-25.146-1.19c-12.025-0.949-27.012-1.389-37.65-7.74
			c-0.707-0.422-3.382-0.184-3.602,0.785c-2.211,9.746-2.14,20.472,0.317,30.133c1.87,7.352,5.896,13.883,11.907,18.531
			c1.491,1.152,7.277-0.609,8.82-0.794c6.333-0.759,12.683-1.428,19.05-1.821c2.567-0.158,5.199-0.303,7.761-0.011
			c1.174,0.135,1.648,0.976,2.933,0.841c4.344-0.457,6.337-5.202,8.117-8.635c4.754-9.172,7.503-19.551,8.488-29.798
			c0.05-0.522-3.596-0.349-3.692,0.654c-0.948,9.868-3.636,19.438-7.868,28.399c-1.234,2.613-2.667,5.185-4.467,7.454
			c-1.758,2.216,0.262-0.362,1.072,0.49c-0.303-0.319-0.965-0.415-1.364-0.5c-3.85-0.823-8.159-0.244-12.04,0.017
			c-5.745,0.388-11.475,1.025-17.192,1.701c-1.949,0.23-3.896,0.475-5.843,0.727c-0.436,0.056-0.871,0.113-1.307,0.172
			c0.328-0.044-1.227-1.685-1.788-2.2c-5.405-4.978-8.204-12.132-9.651-19.175c-1.771-8.619-1.51-18.245,0.439-26.84
			c-1.2,0.262-2.401,0.523-3.602,0.785c10.379,6.195,24.728,6.809,36.444,7.855c9.352,0.836,18.772,1.326,28.163,1.415
			C283.278,265.222,286.457,263.979,284.067,263.957z"/>
	</g>
</g>
<g>
	<g>
		<path fill="#4D4D4D" d="M266.018,265.021c8.089-1.156,16.178-2.312,24.268-3.468c0.463-0.066,0.637-0.409,0.646-0.858
			c0.144-6.934,0.289-13.867,0.433-20.8c0.026-1.237-2.384-3.891-2.429-1.756c-0.079,3.791-0.158,7.583-0.236,11.374
			c-0.048,2.292-0.096,4.584-0.143,6.876c-0.014,0.679-0.028,1.357-0.042,2.036c-0.022,1.056,1.1-0.411,0.206-0.283
			c-7.946,1.136-15.892,2.271-23.838,3.406C263.343,261.768,264.76,265.2,266.018,265.021L266.018,265.021z"/>
	</g>
</g>
<g>
	<path fill="#FFFFFF" d="M316.582,261.984c0,0-5.198,24.699,14.734,33.366l28.601,0.867c0,0,16.466-0.002,19.065-37.268
		c1.265-18.124-4.766-10.834-4.766-10.834S316.582,265.45,316.582,261.984z"/>
	<g>
		<path fill="#4D4D4D" d="M315.162,261.012c-2.479,12.141,1.203,25.751,11.419,33.214c5.214,3.808,10.837,2.951,17.024,3.139
			c5.581,0.169,11.212,0.578,16.796,0.509c8.385-0.104,13.838-10.229,16.108-16.918c3.209-9.453,5.73-21.798,3.497-31.704
			c-0.733-3.253-3.807-5.617-6.576-2.986c-0.892,0.847,0.543,0.037-0.991,0.495c-1.633,0.487-3.268,0.969-4.902,1.449
			c-6.214,1.824-12.441,3.602-18.684,5.329c-6.659,1.842-13.339,3.622-20.066,5.202c-2.562,0.602-5.136,1.158-7.729,1.61
			c-0.981,0.171-1.968,0.307-2.96,0.399c-2.276,0.211-0.571-0.743-0.152,1.419c-0.317-1.637-3.195-2.783-2.727-0.369
			c0.681,3.51,5.791,2.135,8.043,1.742c6.936-1.21,13.775-3.096,20.571-4.907c7.361-1.961,14.69-4.042,22.006-6.165
			c2.211-0.642,8.093-1.193,9.684-3.065c0.592-0.696,1.447-1.527,1.757-0.522c1.881,6.088-0.022,14.221-1.084,20.347
			c-1.356,7.833-3.995,16.531-10.093,22.034c-1.858,1.677-4.372,3.183-6.942,3.307c-4.072,0.196-11.431-0.362-16.498-0.516
			c-3.583-0.108-7.165-0.217-10.747-0.326c-4.959-0.15-9.594-6.197-11.651-10.203c-3.09-6.014-3.607-13.979-2.262-20.567
			C318.29,261.546,315.553,259.102,315.162,261.012z"/>
	</g>
</g>
<g>
	<path fill="#00A99D" d="M316.584,265.018c0,11.008,3.142,31.633,13.433,31.633c10.292,0,30.333-6.323,30.333-17.333
		s-5.741-25.133-16.033-25.133C334.025,254.185,316.584,254.008,316.584,265.018z"/>
	<g>
		<path fill="#4D4D4D" d="M314.71,265.082c0.07,8.749,1.114,31.052,13.504,31.766c10.784,0.621,25.933-3.076,32.393-12.354
			c4.044-5.808,0.544-15.77-2.243-21.386c-2.688-5.416-7.399-9.18-13.557-9.181C336.125,253.927,315.37,252.395,314.71,265.082
			c-0.014,0.271,3.724,0.341,3.748-0.129c0.282-5.425,4.368-7.934,9.213-9.277c5.53-1.534,14.749-2.599,20.083-0.02
			c8.402,4.062,13.82,20.913,9.105,28.966c-2.543,4.343-7.929,6.867-12.393,8.669c-5.557,2.242-13.766,5.242-18.561,0.424
			c-6.667-6.7-7.377-19.922-7.448-28.762C318.455,264.611,314.707,264.679,314.71,265.082z"/>
	</g>
</g>
<g>
	<g>
		<path d="M308.669,237.072c0.577,7.8,1.155,15.6,1.733,23.4c0.087,1.183,1.052,1.979,2.247,1.871
			c6.355-0.578,12.711-1.156,19.066-1.734c6.189-0.563,12.543-2.625,18.633-3.899c2.374-0.497,1.364-3.771-0.799-3.318
			c-6.211,1.3-12.422,2.6-18.633,3.899c-6.118,1.28-12.835,1.168-19.066,1.734c0.749,0.624,1.498,1.248,2.247,1.871
			c-0.577-7.8-1.155-15.6-1.733-23.4C312.211,235.418,308.506,234.868,308.669,237.072L308.669,237.072z"/>
	</g>
</g>
<g>
	<path fill="#00A99D" d="M282.35,269.351c0,11.009-8.342,30.333-18.633,30.333c-10.292,0-25.134-8.924-25.134-19.934
		c0-11.009,4.442-17.334,14.733-17.334S282.35,258.341,282.35,269.351z"/>
	<g>
		<path fill="#4D4D4D" d="M280.521,269.509c-0.211,9.464-4.226,20.966-11.761,27.072c-4.448,3.604-10.955,1.153-15.52-1.004
			c-5.128-2.424-9.771-6.45-11.993-11.74c-1.833-4.363-0.786-10.447,1.182-14.593c2.626-5.532,8.458-5.435,13.701-5.667
			C262.422,263.298,279.994,259.566,280.521,269.509c0.097,1.824,3.738,1.182,3.658-0.316c-0.635-11.984-18.825-8.655-26.613-8.17
			c-5.688,0.355-11.089,0.129-15.653,4.088c-4.259,3.695-5.852,10.909-5.085,16.295c0.948,6.661,5.791,11.454,11.269,14.903
			c4.688,2.952,12.153,5.892,17.779,4.328c12.048-3.348,18.054-20.224,18.304-31.444
			C284.219,267.38,280.555,267.983,280.521,269.509z"/>
	</g>
</g>
<g>
	<polygon fill="#FF7BAC" points="288.85,307.483 295.782,318.75 308.782,306.617 	"/>
	<g>
		<path fill="#4D4D4D" d="M287.957,307.877c2.311,3.756,4.622,7.512,6.933,11.267c0.313,0.511,1.371,0.094,1.679-0.192
			c4.333-4.045,8.666-8.089,13-12.133c0.57-0.533-0.221-0.812-0.67-0.793c-6.644,0.288-13.288,0.577-19.932,0.866
			c-1.007,0.043-1.562,1.241-0.233,1.184c6.644-0.288,13.289-0.577,19.933-0.866c-0.224-0.264-0.446-0.528-0.67-0.793
			c-4.333,4.045-8.666,8.089-13,12.133c0.561-0.063,1.119-0.128,1.679-0.192c-2.311-3.756-4.622-7.512-6.933-11.267
			C289.368,306.48,287.497,307.13,287.957,307.877z"/>
	</g>
</g>
<g>
	<g>
		<g>
			<g>
				<path fill="#646464" d="M271.516,318.75c-3.808,0-6.388,0.121-10.816,0.944c-4.838,0.687-28.654,6.21-28.606,6.425
					c-0.062-0.283-23.559,6.763-27.769,9.696c-3.998,2.13-6.229,3.929-8.208,7.202c2.919-2.429,5.189-3.396,9.092-5.464
					c4.002-2.792,27.306-9.829,27.384-9.549c-0.058-0.212,23.654-5.678,28.473-6.395
					C265.472,320.761,267.913,319.979,271.516,318.75z"/>
			</g>
		</g>
	</g>
</g>
<g>
	<g>
		<g>
			<g>
				<path fill="#646464" d="M318.642,300.768c5.951-0.002,9.975-0.03,17.027-0.598c7.624-0.939,45.967-2.569,45.971-2.21
					c-0.015-0.438,38.429,0.438,45.646,3.4c6.718,1.736,10.76,2.484,15.288,6.34c-3.662-4.803-8.016-6.488-14.844-8.239
					c-7.515-3.061-46.135-3.887-46.108-3.45c-0.016-0.361-38.476,1.241-46.11,2.215
					C328.445,298.825,324.463,299.526,318.642,300.768z"/>
			</g>
		</g>
	</g>
</g>
<path d="M280.508,267.888c0,7.419-3.414,23.834-10.833,23.834s-18.633-8.614-18.633-16.034c0-7.419,6.014-14.733,13.433-14.733
	S280.508,260.469,280.508,267.888z"/>
<path d="M317.884,266.75c0,7.42,2.113,21.234,9.533,21.234c7.419,0,18.633-8.615,18.633-16.034s-6.014-14.734-13.434-14.734
	C325.197,257.216,317.884,259.331,317.884,266.75z"/>
<path fill="#FFFFFF" d="M320.917,267.617c0,1.915-0.854,2.167,1.3,2.167c2.157,0,3.899-0.251,3.899-2.167
	c0-1.915,0.854-3.467-1.3-3.467S320.917,265.702,320.917,267.617z"/>
<path fill="#FFFFFF" d="M272.6,268.916c0,1.915-0.854,2.167,1.3,2.167s3.9-0.252,3.9-2.167c0-1.914,0.854-3.466-1.3-3.466
	S272.6,267.002,272.6,268.916z"/>
<path fill="#736357" d="M361.649,231.217c0,0,21.233,23.834,26.433,28.168c5.2,4.331,44.2,31.2,44.2,31.2l-1.732-13.869
	C430.55,276.716,378.982,247.684,361.649,231.217z"/>
<path fill="#736357" d="M168.925,283.647c0,0,0.65,13.65-0.649,15.166s-0.434,0.866-0.434,0.866l16.033-12.782l14.517-12.566
	l14.3-11.373l18.634-17.66l12.565-13.106l-7.148,3.789l-30.767,21.233L168.925,283.647z"/>
<g>
	<g>
		<path fill="#4D4D4D" d="M294.657,318.75c0.354,5.824,0.39,11.761,1.111,17.55c0.008,0.063-0.483,0.62-1.312,1.331
			c-1.575,1.35-3.149,2.699-4.724,4.049c-2.401,2.059-4.803,4.117-7.204,6.175c-1.104,0.946,0.496,2.53,1.591,1.592
			c2.401-2.059,4.803-4.117,7.204-6.176c1.555-1.333,6.159-3.924,6.736-6.021c0.595-2.161-0.387-5.938-0.52-8.114
			c-0.211-3.462-0.422-6.923-0.633-10.385C296.819,317.309,294.568,317.3,294.657,318.75L294.657,318.75z"/>
	</g>
</g>
<g>
	<line fill="#C69C6D" x1="296.975" y1="336.95" x2="312.087" y2="348.976"/>
	<g>
		<path fill="#4D4D4D" d="M296.18,337.746c5.037,4.008,10.074,8.017,15.111,12.025c1.123,0.894,2.727-0.688,1.592-1.592
			c-5.038-4.008-10.075-8.017-15.112-12.025C296.647,335.261,295.044,336.843,296.18,337.746L296.18,337.746z"/>
	</g>
</g>
<polygon fill="#736357" points="312.036,235.983 325.902,244.216 357.104,246.816 349.735,252.883 314.202,258.949 "/>
<g>
	<g>
		<g>
			<g>
				<path fill="#646464" d="M324.383,318.75c2.633,0.996,4.423,1.599,7.665,2.107c3.526,0.469,21.06,3.51,21.043,3.591
					c0.023-0.105,17.427,3.561,20.727,4.8c3.114,0.953,4.923,1.202,7.657,1.853c-2.192-1.775-3.938-2.726-7.096-3.72
					c-3.399-1.304-20.906-4.955-20.922-4.849c0.013-0.082-17.576-3.165-21.114-3.603
					C329.087,318.449,327.188,318.512,324.383,318.75z"/>
			</g>
		</g>
	</g>
</g>
<g>
	<g>
		<g>
			<g>
				<path fill="#646464" d="M276.86,312.627c-5.731-0.397-9.641-0.484-16.468,0.057c-7.464,0.021-44.218,5.668-44.126,6.232
					c0.006,0.011-9.139,1.781-18.948,4.77c-9.861,2.825-20.125,7.482-23.338,9.428c-6.013,3.392-9.094,6.105-12.685,10.578
					c4.479-3.589,7.738-5.573,13.625-8.87c3.131-1.878,13.204-6.455,22.966-9.257c9.701-2.961,18.786-4.729,18.779-4.739
					c-0.107-0.559,36.454-6.143,43.891-6.198C267.351,314.058,271.181,313.474,276.86,312.627z"/>
			</g>
		</g>
	</g>
</g>
<g>
	<g>
		<g>
			<g>
				<path fill="#646464" d="M279.985,304.517c-6.148-0.729-10.339-1.081-17.719-1.062c-8-0.302-48.013,1.429-47.999,1.786
					c-0.01-0.426-39.976,3.704-47.534,7.38c-6.928,2.362-11.378,4.323-14.806,9.604c4.356-4.394,8.561-5.4,15.387-7.741
					c7.281-3.56,47.078-7.726,47.099-7.297c-0.026-0.356,39.878-2.05,47.866-1.781C269.643,305.356,273.817,305.034,279.985,304.517
					z"/>
			</g>
		</g>
	</g>
</g>
<g>
	<path fill="#FBB03B" d="M204.784,226.559c0,0,16.684-46.692,76.268-64.567c59.585-17.875,110.176,58.283,110.176,58.283
		l1.409,14.842l-44.416,10.833l-77.459,4.875l-56.333-9.208l-13-4.333L204.784,226.559z"/>
	<g>
		<path fill="#4D4D4D" d="M205.959,226.803c2.733-7.577,7.431-14.631,12.227-21.022c12.218-16.279,28.857-28.703,47.361-36.987
			c10.967-4.91,22.546-8.498,34.64-8.461c10.178,0.031,20.182,2.831,29.433,6.917c16.606,7.335,30.932,19.417,43.317,32.505
			c5.61,5.929,10.859,12.234,15.633,18.856c3.142,4.358,2.314,11.117,2.855,16.812c0.319-0.438,0.638-0.877,0.957-1.314
			c-12.056,2.94-24.111,5.881-36.167,8.821c-7.764,1.893-13.664,2.327-22.131,2.86c-15.533,0.978-31.065,1.955-46.598,2.933
			c-7.706,0.485-14.546,1.368-21.457,0.239c-13.232-2.163-26.463-4.326-39.695-6.489c-3.808-0.622-7.616-1.244-11.424-1.867
			c-4.37-0.714-8.881-2.944-13.09-4.348c0.261,0.424,0.522,0.847,0.783,1.27C203.722,233.952,204.841,230.378,205.959,226.803
			c0.454-1.448-1.956-1.749-2.35-0.488c-1.119,3.575-2.237,7.149-3.355,10.725c-0.205,0.655,0.195,1.073,0.783,1.27
			c4.309,1.436,8.876,3.659,13.354,4.391c4.847,0.792,9.695,1.585,14.542,2.377c13.459,2.2,26.918,4.4,40.377,6.6
			c1.936,0.317,3.849,0.046,5.805-0.077c6.116-0.385,12.231-0.77,18.348-1.154c15.194-0.956,30.388-1.913,45.582-2.869
			c18.299-1.151,36.072-7.116,53.846-11.451c0.643-0.156,1.019-0.671,0.957-1.314c-0.25-2.635-0.5-5.27-0.751-7.904
			c-0.168-1.771,0.244-5.673-0.776-7.205c-1.435-2.152-2.999-4.222-4.571-6.274c-8.777-11.457-18.849-22.001-30.017-31.146
			c-14.112-11.556-30.718-20.807-48.962-23.427c-21.221-3.047-42.705,5.705-60.46,16.663
			c-18.556,11.453-37.121,29.775-44.702,50.797C203.095,227.741,205.512,228.044,205.959,226.803z"/>
	</g>
</g>
<path fill="#F7931E" d="M343.284,231.108c1.085,1.083,10.033-38.457-42.107-67.166l9.607-3.251c0,0,39.108,4.875,80.817,60.667
	l2.6,14.083l-29.25,6.5L343.284,231.108z"/>
<g>
	<ellipse fill="#F2F2F2" cx="123.316" cy="173.15" rx="6.066" ry="4.767"/>
	<g>
		<path fill="#E6E6E6" d="M128.254,173.36c-0.386,5.25-8.808,4.466-9.82-0.087c-1.165-5.238,9.402-5.185,9.805,0.311
			c0.083,1.127,2.36,0.136,2.287-0.866c-0.557-7.58-13.878-6.527-14.405,0.643c-0.286,3.897,4.267,5.587,7.418,5.444
			c3.227-0.146,6.721-2.446,6.972-5.864C130.609,171.612,128.325,172.398,128.254,173.36z"/>
	</g>
</g>
<g>
	<ellipse fill="#F2F2F2" cx="229.05" cy="173.15" rx="6.067" ry="4.766"/>
	<g>
		<path fill="#E6E6E6" d="M234.123,172.579c-0.335,4.561-9.038,6.291-10.114,1.45c-1.105-4.971,9.721-6.668,10.123-1.2
			c0.072,0.981,2.081,2.142,1.971,0.645c-0.533-7.263-13.544-8.649-14.114-0.894c-0.55,7.491,13.551,8.935,14.123,1.144
			C236.181,172.774,234.217,171.302,234.123,172.579z"/>
	</g>
</g>
<g>
	<ellipse fill="#F2F2F2" cx="336.517" cy="92.551" rx="6.067" ry="4.766"/>
	<g>
		<path fill="#E6E6E6" d="M341.879,91.69c-0.354,4.813-7.451,5.811-10.335,2.648c-1.985-2.178,1.915-4.632,3.46-5.146
			c2.102-0.698,6.651-0.119,6.86,2.721c0.049,0.664,1.536,2.592,1.439,1.275c-0.228-3.104-2.226-5.315-5.126-6.278
			c-3.489-1.158-8.146,0.856-8.434,4.779c-0.556,7.563,12.971,9.536,13.545,1.722C343.34,92.727,341.945,90.781,341.879,91.69z"/>
	</g>
</g>
<g>
	<ellipse fill="#F2F2F2" cx="438.058" cy="159.716" rx="6.067" ry="4.767"/>
	<g>
		<path fill="#E6E6E6" d="M443.03,159.186c-0.357,4.866-9.543,6.54-9.945,1.06C432.721,155.287,442.637,153.832,443.03,159.186
			c0.062,0.841,2.249,1.87,2.189,1.06c-0.52-7.08-13.758-8.775-14.324-1.06c-0.231,3.146,3.557,5.646,6.271,6.018
			c3.473,0.477,7.758-0.928,8.054-4.958C445.28,159.416,443.096,158.293,443.03,159.186z"/>
	</g>
</g>
<g>
	<ellipse fill="#F2F2F2" cx="282.925" cy="126.782" rx="6.067" ry="4.767"/>
	<g>
		<path fill="#E6E6E6" d="M287.931,126.42c-0.338,4.611-8.95,5.625-9.982,0.985c-1.068-4.805,9.597-6.078,9.993-0.69
			c0.099,1.344,2.221,1.76,2.102,0.134c-0.552-7.514-13.677-8.189-14.247-0.429c-0.567,7.727,13.68,8.592,14.258,0.725
			C290.146,125.894,288.046,124.853,287.931,126.42z"/>
	</g>
</g>
<g>
	<ellipse fill="#F2F2F2" cx="346.049" cy="180.084" rx="6.067" ry="4.766"/>
	<g>
		<path fill="#E6E6E6" d="M350.985,180.538c-0.399,5.448-9.512,3.996-9.872-0.908C340.726,174.356,350.62,175.558,350.985,180.538
			c0.073,0.997,2.326-0.024,2.262-0.908c-0.564-7.688-13.871-6.237-14.396,0.908c-0.276,3.768,4.682,5.503,7.651,5.096
			c3.243-0.445,6.485-2.486,6.744-6.004C353.314,178.705,351.051,179.644,350.985,180.538z"/>
	</g>
</g>
<g>
	<ellipse fill="#F2F2F2" cx="261.55" cy="339.551" rx="6.067" ry="4.766"/>
	<g>
		<path fill="#E6E6E6" d="M266.775,338.687c-0.354,4.83-10.064,6.999-10.451,1.729C255.957,335.412,266.402,333.595,266.775,338.687
			c0.048,0.657,1.677,1.643,1.684,1.729c-0.5-6.812-13.237-9.649-13.818-1.729c-0.193,2.631,2.888,5.152,5.001,6.083
			c3.443,1.517,8.519-0.286,8.817-4.354C268.503,339.808,266.776,338.681,266.775,338.687z"/>
	</g>
</g>
<g>
	<ellipse fill="#F2F2F2" cx="50.95" cy="299.25" rx="6.067" ry="4.767"/>
	<g>
		<path fill="#E6E6E6" d="M55.803,299.347c-0.394,5.364-8.583,5.032-9.66,0.187c-1.224-5.505,9.234-5.72,9.653-0.01
			c0.061,0.833,2.508,0.389,2.439-0.547c-0.536-7.292-14.05-6.663-14.567,0.37c-0.54,7.346,14.036,6.95,14.561-0.193
			C58.305,298.133,55.863,298.528,55.803,299.347z"/>
	</g>
</g>
<g>
	<ellipse fill="#F2F2F2" cx="218.65" cy="366.851" rx="6.067" ry="4.766"/>
	<g>
		<path fill="#E6E6E6" d="M223.721,366.163c-0.355,4.833-9.738,6.876-10.142,1.375C213.214,362.571,223.329,360.826,223.721,366.163
			c0.052,0.701,2.021,1.775,1.992,1.375c-0.506-6.887-13.556-9.139-14.126-1.375c-0.209,2.85,3.271,5.453,5.718,6.021
			c3.491,0.81,8.102-0.488,8.408-4.646C225.762,366.87,223.757,365.666,223.721,366.163z"/>
	</g>
</g>
<g>
	<ellipse fill="#F2F2F2" cx="457.85" cy="310.95" rx="6.067" ry="4.766"/>
	<g>
		<path fill="#E6E6E6" d="M462.668,310.897c-0.4,5.458-9.231,5.629-9.637,0.105C452.632,305.567,462.265,305.399,462.668,310.897
			c0.057,0.771,2.547,0.77,2.498,0.105c-0.52-7.07-14.108-7.241-14.633-0.105c-0.272,3.707,4.453,5.196,7.295,5.325
			c3.255,0.147,7.075-1.641,7.338-5.22C465.218,310.296,462.723,310.161,462.668,310.897z"/>
	</g>
</g>
<g>
	<ellipse fill="#F2F2F2" cx="360.491" cy="375.517" rx="6.067" ry="4.766"/>
	<g>
		<path fill="#E6E6E6" d="M365.471,374.955c-0.338,4.601-8.8,6.419-9.904,1.452c-1.126-5.062,9.48-6.804,9.89-1.226
			c0.072,0.985,2.3,1.99,2.203,0.67c-0.528-7.194-13.76-8.567-14.322-0.896c-0.545,7.417,13.743,8.811,14.308,1.123
			C367.72,375.061,365.551,373.859,365.471,374.955z"/>
	</g>
</g>
<g>
	<ellipse fill="#F2F2F2" cx="443.257" cy="358.182" rx="6.067" ry="4.767"/>
	<g>
		<path fill="#E6E6E6" d="M448.138,357.787c-0.363,4.953-8.542,6.549-9.727,1.222c-1.18-5.31,9.283-7.224,9.732-1.098
			c0.046,0.621,2.411,1.223,2.361,0.541c-0.498-6.776-13.966-7.941-14.501-0.665c-0.233,3.188,3.697,5.229,6.343,5.591
			c3.408,0.468,7.866-0.752,8.164-4.802C450.564,357.838,448.173,357.31,448.138,357.787z"/>
	</g>
</g>
<g>
	<ellipse fill="#F2F2F2" cx="258.732" cy="203.484" rx="6.067" ry="4.766"/>
	<g>
		<path fill="#E6E6E6" d="M263.555,203.598c-0.377,5.133-9.276,4.796-9.645-0.227C253.541,198.348,263.183,198.536,263.555,203.598
			c0.092,1.245,2.582,1.023,2.49-0.227c-0.56-7.626-14.072-7.303-14.625,0.227c-0.267,3.638,4.417,5.719,7.397,5.584
			c3.487-0.158,6.951-2.036,7.228-5.811C266.134,202.16,263.647,202.347,263.555,203.598z"/>
	</g>
</g>
<g>
	<ellipse fill="#F2F2F2" cx="165.35" cy="105.551" rx="6.067" ry="4.766"/>
	<g>
		<path fill="#E6E6E6" d="M170.213,105.753c-0.397,5.413-9.354,4.677-9.728-0.405C160.092,99.983,169.841,100.676,170.213,105.753
			c0.083,1.122,2.473,0.498,2.407-0.405c-0.553-7.538-14.011-6.833-14.542,0.405c-0.285,3.885,4.539,5.458,7.579,5.321
			c3.215-0.146,6.711-2.293,6.963-5.726C172.7,104.265,170.282,104.82,170.213,105.753z"/>
	</g>
</g>
<g>
	<ellipse fill="#F2F2F2" cx="149.242" cy="217.999" rx="6.067" ry="4.766"/>
	<g>
		<path fill="#E6E6E6" d="M154.076,217.789c-0.393,5.354-9.254,6.074-9.669,0.42C144.014,212.853,153.665,212.179,154.076,217.789
			c0.051,0.695,2.496,0.844,2.465,0.42c-0.504-6.859-14.073-7.581-14.599-0.42c-0.499,6.793,14.073,7.575,14.599,0.42
			C156.587,217.581,154.115,217.269,154.076,217.789z"/>
	</g>
</g>
<g>
	<ellipse fill="#F2F2F2" cx="109.45" cy="266.316" rx="6.067" ry="4.766"/>
	<g>
		<path fill="#E6E6E6" d="M114.309,266.559c-0.376,5.117-9.36,4.389-9.718-0.484C104.226,261.101,113.946,261.623,114.309,266.559
			c0.1,1.359,2.506,0.741,2.416-0.484c-0.571-7.775-13.998-7.035-14.55,0.484c-0.289,3.932,4.652,5.643,7.73,5.503
			c3.392-0.153,6.563-2.5,6.819-5.987C116.822,264.751,114.397,265.344,114.309,266.559z"/>
	</g>
</g>
<g>
	<ellipse fill="#F2F2F2" cx="500.75" cy="243.351" rx="6.067" ry="4.766"/>
	<g>
		<path fill="#E6E6E6" d="M505.658,243.82c-0.434,5.902-9.439,4.203-9.817-0.939C495.415,237.082,505.278,238.652,505.658,243.82
			c0-0.002,2.351-0.472,2.316-0.939c-0.539-7.34-13.973-5.561-14.45,0.939c-0.315,4.296,5.52,5.148,8.496,4.458
			c2.722-0.632,5.731-2.358,5.954-5.397C507.966,243,505.699,243.262,505.658,243.82z"/>
	</g>
</g>
<g>
	<ellipse fill="#F2F2F2" cx="407.583" cy="401.95" rx="6.067" ry="4.766"/>
	<g>
		<path fill="#E6E6E6" d="M412.417,401.91c-0.367,5.002-8.596,5.024-9.631,0.372c-1.125-5.059,9.229-5.628,9.634-0.108
			c0.094,1.279,2.555,0.852,2.459-0.447c-0.552-7.517-14.052-7.229-14.596,0.184c-0.562,7.646,14.043,7.641,14.599,0.08
			C414.983,400.608,412.508,400.669,412.417,401.91z"/>
	</g>
</g>
<g>
	<ellipse fill="#F2F2F2" cx="35.35" cy="386.351" rx="6.067" ry="4.766"/>
	<g>
		<path fill="#E6E6E6" d="M40.563,385.608c-0.33,4.5-7.542,6.06-10.094,2.487c-1.513-2.117,1.289-4.267,2.868-4.962
			c2.312-1.019,6.983-0.421,7.213,2.713c0.062,0.835,1.838,2.433,1.733,1.008c-0.531-7.229-13.279-9.098-13.855-1.246
			c-0.554,7.543,13.269,9.291,13.843,1.484C42.331,386.271,40.645,384.492,40.563,385.608z"/>
	</g>
</g>
<g>
	<ellipse fill="#F2F2F2" cx="433.365" cy="219.733" rx="6.067" ry="4.766"/>
	<g>
		<path fill="#E6E6E6" d="M438.458,219.144c-0.334,4.554-9.078,6.354-10.159,1.492c-1.105-4.972,9.771-6.739,10.174-1.249
			c0.067,0.924,2.028,2.169,1.92,0.692c-0.531-7.229-13.5-8.688-14.069-0.936c-0.547,7.446,13.512,8.969,14.084,1.18
			C440.473,219.428,438.549,217.909,438.458,219.144z"/>
	</g>
</g>
<g>
	<ellipse fill="#F2F2F2" cx="327.85" cy="353.851" rx="6.067" ry="4.766"/>
	<g>
		<path fill="#E6E6E6" d="M332.836,354.402c-0.406,5.542-9.614,3.775-9.973-1.104C322.472,347.967,332.471,349.426,332.836,354.402
			c0.058,0.776,2.217-0.35,2.162-1.104c-0.564-7.689-13.783-5.892-14.297,1.104c-0.298,4.063,5.011,5.305,8.014,4.893
			c3.02-0.414,6.053-2.861,6.283-5.996C335.049,352.607,332.894,353.625,332.836,354.402z"/>
	</g>
</g>
<g>
	<ellipse fill="#F2F2F2" cx="314.85" cy="219.95" rx="6.067" ry="4.766"/>
	<g>
		<path fill="#E6E6E6" d="M319.836,220.502c-0.406,5.542-9.614,3.775-9.973-1.104C309.472,214.066,319.471,215.525,319.836,220.502
			c0.058,0.777,2.217-0.35,2.162-1.104c-0.564-7.689-13.783-5.891-14.297,1.104c-0.298,4.063,5.011,5.304,8.014,4.892
			c3.02-0.414,6.053-2.86,6.283-5.997C322.049,218.708,319.894,219.725,319.836,220.502z"/>
	</g>
</g>
<g>
	<ellipse fill="#F2F2F2" cx="281.05" cy="399.351" rx="6.067" ry="4.766"/>
	<g>
		<path fill="#E6E6E6" d="M286.037,399.902c-0.407,5.542-9.615,3.775-9.974-1.104C275.672,393.467,285.671,394.926,286.037,399.902
			c0.057,0.776,2.217-0.35,2.161-1.104c-0.564-7.689-13.782-5.892-14.296,1.104c-0.298,4.063,5.01,5.305,8.014,4.893
			c3.019-0.414,6.052-2.861,6.282-5.996C288.249,398.107,286.094,399.125,286.037,399.902z"/>
	</g>
</g>
<ellipse fill="#F2F2F2" stroke="#E6E6E6" stroke-width="0.5" cx="191.35" cy="120.5" rx="2.6" ry="3.25"/>
<ellipse fill="#F2F2F2" stroke="#E6E6E6" stroke-width="0.5" cx="236.85" cy="133.5" rx="2.6" ry="3.25"/>
<ellipse fill="#F2F2F2" stroke="#E6E6E6" stroke-width="0.5" cx="470.85" cy="237.5" rx="2.6" ry="3.25"/>
<ellipse fill="#F2F2F2" stroke="#E6E6E6" stroke-width="0.5" cx="327.85" cy="185.5" rx="2.6" ry="3.25"/>
<ellipse fill="#F2F2F2" stroke="#E6E6E6" stroke-width="0.5" cx="405.85" cy="146.5" rx="2.6" ry="3.25"/>
<ellipse fill="#F2F2F2" stroke="#E6E6E6" stroke-width="0.5" cx="392.85" cy="354.5" rx="2.6" ry="3.25"/>
<ellipse fill="#F2F2F2" stroke="#E6E6E6" stroke-width="0.5" cx="93.85" cy="354.5" rx="2.6" ry="3.25"/>
<ellipse fill="#F2F2F2" stroke="#E6E6E6" stroke-width="0.5" cx="145.85" cy="263.5" rx="2.6" ry="3.25"/>
<ellipse fill="#F2F2F2" stroke="#E6E6E6" stroke-width="0.5" cx="418.85" cy="159.5" rx="2.6" ry="3.25"/>
<ellipse fill="#F2F2F2" stroke="#E6E6E6" stroke-width="0.5" cx="535.85" cy="354.5" rx="2.6" ry="3.25"/>
<ellipse fill="#F2F2F2" stroke="#E6E6E6" stroke-width="0.5" cx="15.85" cy="354.5" rx="2.6" ry="3.25"/>
<ellipse fill="#F2F2F2" stroke="#E6E6E6" stroke-width="0.5" cx="496.85" cy="276.5" rx="2.6" ry="3.25"/>
<ellipse fill="#F2F2F2" stroke="#E6E6E6" stroke-width="0.5" cx="197.85" cy="419.5" rx="2.6" ry="3.25"/>
<ellipse fill="#F2F2F2" stroke="#E6E6E6" stroke-width="0.5" cx="2.85" cy="406.5" rx="2.6" ry="3.25"/>
<ellipse fill="#F2F2F2" stroke="#E6E6E6" stroke-width="0.5" cx="509.85" cy="341.5" rx="2.6" ry="3.25"/>
<ellipse fill="#F2F2F2" stroke="#E6E6E6" stroke-width="0.5" cx="314.85" cy="198.5" rx="2.6" ry="3.25"/>
<ellipse fill="#F2F2F2" stroke="#E6E6E6" stroke-width="0.5" cx="145.85" cy="367.5" rx="2.6" ry="3.25"/>
<ellipse fill="#F2F2F2" stroke="#E6E6E6" stroke-width="0.5" cx="418.85" cy="263.5" rx="2.6" ry="3.25"/>
<ellipse fill="#F2F2F2" stroke="#E6E6E6" stroke-width="0.5" cx="93.85" cy="159.5" rx="2.6" ry="3.25"/>
<ellipse fill="#F2F2F2" stroke="#E6E6E6" stroke-width="0.5" cx="327.85" cy="3.5" rx="2.6" ry="3.25"/>
<ellipse fill="#F2F2F2" stroke="#E6E6E6" stroke-width="0.5" cx="275.85" cy="55.5" rx="2.6" ry="3.25"/>
<g>
	<ellipse fill="#F2F2F2" cx="411.842" cy="61.999" rx="6.067" ry="4.766"/>
	<g>
		<path fill="#E6E6E6" d="M416.828,62.551c-0.406,5.542-9.614,3.775-9.973-1.104C406.464,56.115,416.463,57.574,416.828,62.551
			c0.058,0.776,2.217-0.35,2.162-1.104c-0.564-7.689-13.783-5.891-14.297,1.104c-0.298,4.062,5.011,5.304,8.014,4.892
			c3.02-0.415,6.053-2.861,6.283-5.997C419.041,60.756,416.886,61.773,416.828,62.551z"/>
	</g>
</g>
<g>
	<ellipse fill="#F2F2F2" cx="372.049" cy="110.316" rx="6.067" ry="4.766"/>
	<g>
		<path fill="#E6E6E6" d="M377.035,110.869c-0.406,5.542-9.613,3.774-9.972-1.104C366.672,104.433,376.67,105.892,377.035,110.869
			c0.058,0.776,2.217-0.35,2.162-1.104c-0.564-7.689-13.782-5.891-14.296,1.104c-0.298,4.062,5.011,5.304,8.014,4.892
			c3.02-0.415,6.052-2.861,6.282-5.997C379.248,109.074,377.093,110.091,377.035,110.869z"/>
	</g>
</g>
<ellipse fill="#F2F2F2" stroke="#E6E6E6" stroke-width="0.5" cx="408.45" cy="107.5" rx="2.6" ry="3.25"/>
<ellipse fill="#F2F2F2" stroke="#E6E6E6" stroke-width="0.5" cx="365.549" cy="146.5" rx="2.6" ry="3.25"/>
<g>
	<ellipse fill="#F2F2F2" cx="107.717" cy="231.65" rx="6.067" ry="4.766"/>
	<g>
		<path fill="#E6E6E6" d="M112.704,232.202c-0.407,5.542-9.615,3.775-9.974-1.104C102.339,225.767,112.338,227.226,112.704,232.202
			c0.057,0.776,2.217-0.35,2.161-1.104c-0.564-7.689-13.782-5.892-14.296,1.104c-0.298,4.063,5.01,5.305,8.014,4.893
			c3.019-0.414,6.052-2.861,6.282-5.996C114.916,230.407,112.76,231.425,112.704,232.202z"/>
	</g>
</g>
<g>
	<ellipse fill="#F2F2F2" cx="209.258" cy="298.816" rx="6.067" ry="4.766"/>
	<g>
		<path fill="#E6E6E6" d="M214.245,299.368c-0.407,5.542-9.615,3.775-9.974-1.104C203.88,292.933,213.879,294.392,214.245,299.368
			c0.057,0.776,2.217-0.35,2.161-1.104c-0.564-7.689-13.782-5.892-14.296,1.104c-0.298,4.063,5.01,5.305,8.014,4.893
			c3.019-0.414,6.052-2.861,6.282-5.996C216.457,297.573,214.302,298.591,214.245,299.368z"/>
	</g>
</g>
<ellipse fill="#F2F2F2" stroke="#E6E6E6" stroke-width="0.5" cx="177.049" cy="285.601" rx="2.6" ry="3.25"/>
<g>
	<ellipse fill="#F2F2F2" cx="183.042" cy="201.1" rx="6.067" ry="4.766"/>
	<g>
		<path fill="#E6E6E6" d="M188.029,201.652c-0.407,5.542-9.615,3.775-9.974-1.104C177.664,195.214,187.663,196.674,188.029,201.652
			c0.057,0.776,2.217-0.35,2.161-1.104c-0.564-7.691-13.783-5.892-14.296,1.104c-0.298,4.062,5.01,5.304,8.014,4.892
			c3.019-0.415,6.052-2.861,6.282-5.997C190.241,199.857,188.086,200.874,188.029,201.652z"/>
	</g>
</g>
<g>
	<ellipse fill="#F2F2F2" cx="143.25" cy="249.416" rx="6.067" ry="4.766"/>
	<g>
		<path fill="#E6E6E6" d="M148.236,249.968c-0.407,5.543-9.614,3.775-9.973-1.104C137.872,243.532,147.87,244.991,148.236,249.968
			c0.057,0.776,2.217-0.35,2.161-1.104c-0.564-7.689-13.781-5.892-14.295,1.104c-0.298,4.062,5.01,5.305,8.013,4.893
			c3.019-0.414,6.052-2.861,6.282-5.996C150.448,248.173,148.293,249.19,148.236,249.968z"/>
	</g>
</g>
<ellipse fill="#F2F2F2" stroke="#E6E6E6" stroke-width="0.5" cx="179.65" cy="246.601" rx="2.6" ry="3.25"/>
<ellipse fill="#F2F2F2" stroke="#E6E6E6" stroke-width="0.5" cx="136.75" cy="285.601" rx="2.6" ry="3.25"/>
<g>
	<ellipse fill="#F2F2F2" cx="341.717" cy="335.65" rx="6.067" ry="4.766"/>
	<g>
		<path fill="#E6E6E6" d="M346.703,336.202c-0.406,5.542-9.614,3.775-9.973-1.104C336.339,329.767,346.338,331.226,346.703,336.202
			c0.058,0.776,2.217-0.35,2.162-1.104c-0.564-7.689-13.783-5.892-14.297,1.104c-0.298,4.063,5.011,5.305,8.014,4.893
			c3.02-0.414,6.053-2.861,6.283-5.996C348.916,334.407,346.761,335.425,346.703,336.202z"/>
	</g>
</g>
<g>
	<ellipse fill="#F2F2F2" cx="443.257" cy="402.816" rx="6.067" ry="4.766"/>
	<g>
		<path fill="#E6E6E6" d="M448.243,403.368c-0.406,5.543-9.613,3.775-9.972-1.104C437.88,396.933,447.878,398.392,448.243,403.368
			c0.058,0.776,2.217-0.35,2.162-1.104c-0.565-7.689-13.782-5.892-14.296,1.104c-0.298,4.062,5.011,5.305,8.014,4.893
			c3.02-0.414,6.052-2.861,6.282-5.996C450.456,401.573,448.301,402.591,448.243,403.368z"/>
	</g>
</g>
<ellipse fill="#F2F2F2" stroke="#E6E6E6" stroke-width="0.5" cx="411.049" cy="389.601" rx="2.6" ry="3.25"/>
<g>
	<ellipse fill="#F2F2F2" cx="417.042" cy="305.099" rx="6.067" ry="4.767"/>
	<g>
		<path fill="#E6E6E6" d="M422.027,305.65c-0.406,5.544-9.613,3.776-9.972-1.104C411.664,299.215,421.662,300.674,422.027,305.65
			c0.058,0.776,2.217-0.35,2.162-1.104c-0.564-7.689-13.782-5.892-14.296,1.104c-0.298,4.063,5.01,5.306,8.014,4.894
			c3.02-0.414,6.052-2.862,6.282-5.997C424.24,303.855,422.085,304.873,422.027,305.65z"/>
	</g>
</g>
<g>
	<ellipse fill="#F2F2F2" cx="377.25" cy="353.416" rx="6.067" ry="4.766"/>
	<g>
		<path fill="#E6E6E6" d="M382.235,353.968c-0.406,5.543-9.613,3.775-9.972-1.104C371.872,347.532,381.87,348.991,382.235,353.968
			c0.058,0.776,2.217-0.35,2.162-1.104c-0.565-7.689-13.782-5.892-14.296,1.104c-0.298,4.062,5.011,5.305,8.014,4.893
			c3.02-0.414,6.052-2.861,6.282-5.996C384.448,352.173,382.293,353.19,382.235,353.968z"/>
	</g>
</g>
<ellipse fill="#F2F2F2" stroke="#E6E6E6" stroke-width="0.5" cx="413.65" cy="350.601" rx="2.6" ry="3.25"/>
<ellipse fill="#F2F2F2" stroke="#E6E6E6" stroke-width="0.5" cx="385.049" cy="422.75" rx="2.6" ry="3.25"/>
<g>
	<ellipse fill="#F2F2F2" cx="170.117" cy="392.851" rx="6.067" ry="4.766"/>
	<g>
		<path fill="#E6E6E6" d="M175.103,393.402c-0.407,5.543-9.614,3.775-9.973-1.104C164.739,386.967,174.737,388.426,175.103,393.402
			c0.057,0.776,2.217-0.35,2.161-1.104c-0.564-7.689-13.781-5.892-14.295,1.104c-0.298,4.062,5.01,5.305,8.013,4.893
			c3.019-0.414,6.052-2.861,6.282-5.996C177.315,391.607,175.16,392.625,175.103,393.402z"/>
	</g>
</g>
<g>
	<ellipse fill="#F2F2F2" cx="260.9" cy="454.385" rx="6.067" ry="4.766"/>
	<g>
		<path fill="#E6E6E6" d="M265.886,454.937c-0.407,5.542-9.614,3.775-9.973-1.104C255.522,448.501,265.521,449.96,265.886,454.937
			c0.057,0.776,2.217-0.35,2.161-1.104c-0.564-7.689-13.781-5.892-14.295,1.104c-0.298,4.062,5.009,5.305,8.013,4.893
			c3.019-0.414,6.052-2.861,6.282-5.996C268.098,453.142,265.943,454.159,265.886,454.937z"/>
	</g>
</g>
<ellipse fill="#F2F2F2" stroke="#E6E6E6" stroke-width="0.5" cx="239.45" cy="446.801" rx="2.6" ry="3.25"/>
<g>
	<ellipse fill="#F2F2F2" cx="245.442" cy="362.299" rx="6.067" ry="4.766"/>
	<g>
		<path fill="#E6E6E6" d="M250.428,362.851c-0.407,5.542-9.614,3.775-9.973-1.104C240.064,356.415,250.062,357.874,250.428,362.851
			c0.057,0.776,2.217-0.35,2.161-1.104c-0.564-7.689-13.781-5.892-14.295,1.104c-0.298,4.062,5.009,5.305,8.013,4.893
			c3.019-0.414,6.052-2.861,6.282-5.996C252.64,361.056,250.485,362.073,250.428,362.851z"/>
	</g>
</g>
<g>
	<ellipse fill="#F2F2F2" cx="205.65" cy="410.616" rx="6.067" ry="4.766"/>
	<g>
		<path fill="#E6E6E6" d="M210.636,411.168c-0.407,5.542-9.614,3.775-9.973-1.104C200.272,404.732,210.271,406.191,210.636,411.168
			c0.057,0.776,2.217-0.35,2.161-1.104c-0.564-7.689-13.781-5.892-14.295,1.104c-0.298,4.062,5.009,5.305,8.013,4.893
			c3.019-0.414,6.052-2.861,6.282-5.996C212.848,409.373,210.693,410.391,210.636,411.168z"/>
	</g>
</g>
<ellipse fill="#F2F2F2" stroke="#E6E6E6" stroke-width="0.5" cx="242.049" cy="407.801" rx="2.6" ry="3.25"/>
<ellipse fill="#F2F2F2" stroke="#E6E6E6" stroke-width="0.5" cx="199.15" cy="446.801" rx="2.6" ry="3.25"/>
<g>
	<ellipse fill="#F2F2F2" cx="216.917" cy="36.65" rx="6.067" ry="4.766"/>
	<g>
		<path fill="#E6E6E6" d="M221.903,37.203c-0.407,5.542-9.614,3.774-9.973-1.104C211.539,30.767,221.537,32.226,221.903,37.203
			c0.057,0.776,2.217-0.35,2.161-1.104c-0.564-7.689-13.781-5.891-14.295,1.104c-0.298,4.062,5.01,5.304,8.013,4.892
			c3.019-0.415,6.052-2.861,6.282-5.997C224.115,35.408,221.96,36.425,221.903,37.203z"/>
	</g>
</g>
<g>
	<ellipse fill="#F2F2F2" cx="318.458" cy="103.816" rx="6.067" ry="4.766"/>
	<g>
		<path fill="#E6E6E6" d="M323.443,104.369c-0.406,5.542-9.613,3.774-9.972-1.104C313.08,97.933,323.078,99.392,323.443,104.369
			c0.058,0.776,2.217-0.35,2.162-1.104c-0.564-7.689-13.782-5.891-14.296,1.104c-0.298,4.062,5.011,5.304,8.014,4.892
			c3.02-0.415,6.052-2.861,6.282-5.997C325.656,102.574,323.501,103.591,323.443,104.369z"/>
	</g>
</g>
<ellipse fill="#F2F2F2" stroke="#E6E6E6" stroke-width="0.5" cx="286.25" cy="90.601" rx="2.6" ry="3.25"/>
<g>
	<ellipse fill="#F2F2F2" cx="292.242" cy="6.1" rx="6.067" ry="4.766"/>
	<g>
		<path fill="#E6E6E6" d="M297.228,6.652c-0.406,5.542-9.614,3.774-9.972-1.104C286.864,0.214,296.862,1.674,297.228,6.652
			c0.058,0.776,2.217-0.35,2.162-1.104c-0.564-7.691-13.782-5.892-14.295,1.104c-0.298,4.062,5.01,5.304,8.013,4.892
			c3.02-0.415,6.052-2.861,6.282-5.997C299.44,4.857,297.285,5.874,297.228,6.652z"/>
	</g>
</g>
<g>
	<ellipse fill="#F2F2F2" cx="252.45" cy="54.416" rx="6.067" ry="4.766"/>
	<g>
		<path fill="#E6E6E6" d="M257.436,54.968c-0.407,5.542-9.614,3.774-9.973-1.104C247.072,48.532,257.07,49.992,257.436,54.968
			c0.057,0.776,2.217-0.35,2.161-1.104c-0.564-7.689-13.781-5.891-14.295,1.104c-0.298,4.062,5.009,5.304,8.013,4.892
			c3.019-0.415,6.052-2.861,6.282-5.997C259.648,53.173,257.493,54.19,257.436,54.968z"/>
	</g>
</g>
<ellipse fill="#F2F2F2" stroke="#E6E6E6" stroke-width="0.5" cx="288.85" cy="51.601" rx="2.6" ry="3.25"/>
<ellipse fill="#F2F2F2" stroke="#E6E6E6" stroke-width="0.5" cx="245.95" cy="90.601" rx="2.6" ry="3.25"/>
<g>
	<ellipse fill="#F2F2F2" cx="75.65" cy="397.616" rx="6.067" ry="4.766"/>
	<g>
		<path fill="#E6E6E6" d="M80.636,398.168c-0.407,5.542-9.614,3.775-9.973-1.104C70.272,391.732,80.271,393.191,80.636,398.168
			c0.057,0.776,2.217-0.35,2.161-1.104c-0.564-7.689-13.781-5.892-14.295,1.104c-0.298,4.062,5.009,5.305,8.013,4.893
			c3.019-0.414,6.052-2.861,6.282-5.996C82.848,396.373,80.693,397.391,80.636,398.168z"/>
	</g>
</g>
<g>
	<ellipse fill="#F2F2F2" cx="112.917" cy="323.95" rx="6.067" ry="4.766"/>
	<g>
		<path fill="#E6E6E6" d="M117.903,324.502c-0.407,5.543-9.614,3.775-9.973-1.104C107.539,318.066,117.537,319.525,117.903,324.502
			c0.057,0.776,2.217-0.35,2.161-1.104c-0.564-7.689-13.781-5.892-14.295,1.104c-0.298,4.062,5.01,5.305,8.013,4.893
			c3.019-0.414,6.052-2.861,6.282-5.996C120.115,322.707,117.959,323.725,117.903,324.502z"/>
	</g>
</g>
<g>
	<path fill="#F2F2F2" d="M301.771,163.617c-1.626-1.896-3.116-4.062-6.637-2.708c0,0-10.832,4.875-15.166,2.708
		s-8.667-7.584-2.709-10.292c5.959-2.708-0.541-6.498,7.584-10.291c8.125-3.792,9.209-9.751,18.959-2.709s9.207,10.292,5.416,11.917
		s8.125,7.583,0,12.458C305.158,167.138,303.396,165.513,301.771,163.617z"/>
	<g>
		<g>
			<path fill="#646464" d="M301.227,163.728c0.313,0.276,0.031-0.32,0.252,0.14C301.362,163.894,301.25,163.885,301.227,163.728z"/>
			<path fill="#646464" d="M302.483,164.858c1.28,0.509,2.901,1.712,4.355,0.783c0.153-0.08,0.053,0.377,0.405,0.169
				c1.16-0.983,3.199-1.619,4.589-2.976l0.032,0.16c0.237-0.299,0.177-0.828,0.325-1.15c0.067,0.018,0.067,0.152,0.18,0.096
				c-0.18-0.161,0.053-0.712-0.073-0.886c0.115-0.135,0.271-0.11,0.357-0.309l-0.255-0.218c-0.568-0.51-0.165-1.417-0.799-2.017
				c0.066,0.009,0.138,0.061,0.162-0.018c-0.82-0.974-1.666-2.171-2.558-3.221c0.102-0.003,0.258-0.052,0.292-0.171
				c-0.25,0.092-0.543-0.215-0.773-0.517c0.138-0.251-0.537-0.454-0.545-0.996l0.061,0.031c-0.281-0.384,0.023-0.533-0.091-0.94
				l0.305-0.147c-0.183-0.436,0.544-0.184,0.658-0.496l-0.039-0.064c0.181-0.194,0.364-0.072,0.537-0.226l0.038,0.028
				c0.398-0.326,0.75-0.331,0.577-0.553c0.287,0.093-0.357,0.346,0.068,0.478c1.521-1.132,1.562-3.086,0.505-4.514
				c-0.001-0.228-0.035-0.358,0.031-0.457c-0.154-0.108-0.442-0.502-0.652-0.538c0.04,0.043,0.049-0.181,0.003-0.266
				c-0.123-0.316-0.472-0.059-0.603-0.403c0.148,0.053,0.251,0.028,0.301-0.078c-0.375-0.071-0.593-0.408-0.906-0.597
				c0.073,0.005,0.155,0.044,0.211-0.028c-0.458-0.092-0.467-0.534-0.821-0.656l0.205-0.032c-0.257-0.529-0.347,0.133-0.617-0.267
				c0.12,0.036,0.135-0.039,0.195-0.075c-0.536-0.068-0.997-0.613-1.396-0.82l0.06-0.041c-0.396-0.27-0.727-0.657-1.217-0.883
				c-0.104-0.176,0.302-0.283-0.137-0.547c-0.189,0.275-0.773-0.406-0.763,0.073c-0.312-0.301-0.785-0.812-1.082-0.892
				c0.23,0.014,0.07-0.457,0.376-0.264l-0.103-0.326c0.116-0.09,0.2,0.205,0.231,0.012c-0.152-0.1-0.673-0.284-0.775-0.421
				c-0.396-0.021-0.86,0.125-1.326-0.139c0.279,0.032,0.078-0.392,0.251-0.343l-0.975,0.161c-0.16-0.074,0.1-0.246-0.166-0.298
				c-0.032,0.083-0.156,0.075-0.258,0.1c-0.041-0.064-0.665-0.297-0.589-0.613c-0.012-0.153,0.288,0.07,0.168-0.127
				c-0.301-0.134-0.364-0.037-0.663-0.167l0.013-0.042c-0.179-0.135-0.632-0.132-0.49,0.131c0.13,0.07,0.025-0.205,0.188-0.027
				c-0.215,0.125-0.561-0.017-0.86-0.083c0.118-0.018,0.137-0.104,0.21-0.179c-0.494,0.134-0.926,0.036-1.381,0.072
				c-0.04,0.154,0.221-0.26,0.271-0.16c-0.551-0.311-1.194,0.104-1.644-0.164c0.076-0.028,0.048,0.222,0.042,0.178
				c-0.262-0.012-0.273-0.252-0.44-0.148c-0.034-0.128-0.216,0.087-0.382,0.16c-0.072,0.111-0.06-0.055,0.094-0.099
				c-0.248,0.137-1.115,0.576-1.732,0.714c0.046,0.075-0.186,0.452-0.309,0.502l-0.052-0.204c-0.175-0.05-0.404,0.264-0.515,0.123
				c-0.147,0.351,0.926-0.772,0.658-0.394c-0.18-0.113-0.346,0.552-0.404,0.271c-0.248,0.16-0.364,0.502-0.705,0.483
				c0.086-0.013,0.05-0.365-0.146-0.228c-0.336,0.27-0.048,0.15-0.298,0.402l-0.133,0.192c0.101,0.174-0.331,0.191-0.073,0.288
				c-0.136-0.111-0.457,0.439-0.611,0.143l-0.1-0.25c-0.144,0.125-0.095,0.404-0.15,0.583l-0.121-0.06
				c0.204,0.346-0.385,0.231-0.398,0.615c-0.412,0.114-0.848,0.574-1.148,0.472c-0.194,0.271-0.357,0.547-0.704,0.67
				c0.04-0.071,0.115-0.133,0.085-0.217c-0.251,0.022-0.24,0.141-0.378,0.308c0.011-0.07-0.51,0.031-0.795,0.034
				c-0.206,0.259-0.007,0.393,0.033,0.522c-0.439-0.196-0.644,0.672-1.143,0.511c0.073-0.098,0.317-0.378,0.039-0.349
				c-0.434-0.222-0.378,0.518-0.876,0.559l0.244,0.244c-0.287-0.084-0.512,0.476-0.609,0.151c-0.071,0.17-0.489,0.133-0.3,0.396
				c-0.774,0.062-1.293,0.952-1.962,0.739c-0.036,0.105-0.245,0.219-0.102,0.311c0.229,0.035,0.077-0.24,0.197-0.185
				c-0.055,0.063-0.012,0.142,0.009,0.182c-0.19,0.073-0.327,0.165-0.36-0.163c-0.483,0.167,0.005,0.691-0.389,1.001
				c-0.089-0.1-0.154-0.099-0.236,0.034l0.039,0.359c-0.194,0.245-0.354,0.017-0.552-0.085c-0.072,0.178-0.169,0.392-0.031,0.534
				l-0.342,0.127c0.256-0.097,0.063,0.182,0.111,0.291l-0.035-0.104c-0.1,0.011-0.087,0.254-0.082,0.372
				c0.143-0.003,0.24-0.212,0.304-0.319c0.075,0.117,0.027,0.259,0.116,0.402c-0.209-0.085-0.217,0.269-0.247,0.436
				c-0.067,0.18,0.174,0.227,0.162,0.278c-0.117-0.013-0.045,0.315-0.193,0.148c-0.033-0.075,0.124-0.14,0.034-0.252
				c-0.096,0.115-0.297,0.076-0.17,0.365c0.095,0.215,0.437-0.021,0.271,0.361l-0.207-0.218l-0.141,0.365l0.198,0.032
				c-0.056,0.05-0.07,0.012-0.099,0.034c0.194,0.144,0.021,0.604,0.222,0.753c-0.024,0.233-0.211,0.445-0.295,0.653l-0.003-0.047
				c-0.207,0.233-0.225,0.597-0.22,0.873l-0.034-0.03c-0.09,0.132-0.246,0.467-0.258,0.709c-0.367,0.226-0.679-0.36-0.747,0.102
				c-0.229,0.271-0.149,0.687,0.049,0.676c-0.6,0.336-1.061,1.026-1.729,0.992c-0.043,0.114,0.03,0.133-0.116,0.264
				c-0.766,0.293-1.133,0.88-1.749,0.933c0.055-0.195-0.13-0.157-0.214-0.232c0.028,0.243-0.261,0.018-0.07,0.267
				c0.145,0.11,0.204,0.177,0.359,0.106c-0.193,0.319-0.389,0.678-0.621,0.772c0.112-0.046,0.126,0.034,0.173,0.111
				c-0.265-0.126-0.359,0.104-0.315,0.287l0.167,0.047l-0.178,0.093c0.055,0.078,0.371,0.09,0.194,0.248l-0.191,0.058
				c0.169,0.193,0.438,0.379,0.36,0.621l-0.178,0.257c0.062,0.088,0.258,0.182,0.271-0.004c-0.022,0.419,0.145,0.674,0,0.909
				c0.849,0.377,1.56,1.155,2.244,1.79l-0.108,0.082c0.109,0.256,0.248-0.091,0.318,0.091c-0.142,0.043-0.029,0.336-0.277,0.325
				c0.188,0.351,0.516,0.108,0.732,0.203c0.131-0.118-0.217-0.023-0.049-0.172c0.068-0.028,0.315,0.408,0.511,0.221
				c0.017,0.132-0.149,0.254-0.251,0.315l0.257,0.013c0.062,0.414-0.829,0.102-0.805,0.572l0.201,0.09
				c0.021,0.349-0.657-0.078-0.251,0.317c0.28,0.026,0.652-0.186,0.541-0.395c0.448,0.196,0.517-0.397,0.932-0.129
				c0.039,0.205-0.362-0.167-0.389,0.062c0.09,0.317,0.474,0.131,0.618,0.3c-0.157-0.198,0.143-0.335,0.291-0.309
				c0.161,0.229-0.257,0.141,0.042,0.337c0.122-0.112,0.395-0.145,0.24-0.305c0.225-0.287,0.22,0.173,0.438-0.024
				c0.02,0.266-0.447,0.424-0.184,0.654c0.011-0.219,0.472-0.192,0.388-0.57c0.108,0.083,0.088,0.266-0.042,0.388
				c0.172,0.172,0.528-0.338,0.522,0.129l0.095-0.223l0.23,0.285c0.191,0.011,0.605-0.296,0.582,0.062
				c0.056-0.022,0.494-0.021,0.322-0.264c-0.267-0.141-0.303,0.171-0.439-0.165c0.173,0.282,0.366-0.014,0.517-0.123l0.029,0.138
				c0.09-0.06,0.303-0.041,0.352-0.194c-0.066,0.083-0.025,0.176,0.051,0.205l0.083-0.216c0.362-0.128,0.113,0.375,0.48,0.276
				l-0.269,0.187c0.058-0.037,0.203,0.154,0.381,0.061c0.052-0.201,0.156-0.447,0.197-0.603c0.197-0.11,0.122,0.203,0.301-0.019
				l-0.241,0.265c-0.035,0.068,0.224,0.292,0.513,0.25c0.174-0.083,0.412-0.419,0.108-0.467c0.141-0.03,0.362,0.048,0.271,0.208
				c0.314-0.127-0.077-0.197,0.181-0.367c0.136,0.105,0.527,0.218,0.784,0.36l-0.233,0.371l0.2-0.034
				c-0.208,0.301,0.172,0.167,0.08,0.462c0.148,0.019,0.296-0.115,0.414-0.215c-0.492-0.332,0.316-0.687,0.107-1.045
				c0.505-0.236,0.571,0.871,0.979,0.112c-0.118-0.075,0.067-0.439-0.24-0.235c0.344-0.05,0.123-0.448,0.555-0.396
				c-0.247,0.237,0.421,0.302,0.063,0.646c-0.007-0.134-0.262-0.031-0.318,0.021c0.178,0.11,0.074,0.395,0.421,0.3
				c0.202-0.095,0.49-0.182,0.39-0.369c-0.071-0.217-0.313,0.111-0.242-0.147c0.395-0.187,0.562,0.113,0.618-0.324
				c-0.253,0.112-0.384-0.093-0.423-0.245l0.273-0.184l-0.015,0.163c0.516-0.044,0.063-0.306,0.542-0.411l0.311,0.217
				c-0.034,0.28-0.718,0.101-0.511,0.476c0.313-0.08,0.351-0.31,0.672-0.301l-0.19,0.148c0.114-0.019,0.396,0.472,0.733,0.016
				c0.186-0.196,0.012-0.161-0.032-0.312c0.476-0.208,0.568-0.412,0.873-0.548c0.039,0.311,0.564-0.171,0.325,0.248
				c-0.222-0.11-0.918,0.159-1.001,0.489c0.296,0.284-0.403,0.082-0.395,0.466c0.4-0.125,0.495,0.22,0.634,0.42
				c0.118-0.022,0.194-0.152,0.249-0.208c-0.024-0.224-0.169-0.172-0.251-0.384c0.465-0.091,0.848-0.368,1.017-0.654
				c0.184,0.049,0.214,0.272,0.047,0.355c0.502-0.254,1.069-0.438,1.587-0.576c-0.451-0.206,0.516-0.299,0.186-0.488
				c-0.291,0.033-0.611-0.118-0.527-0.324c0.171-0.043,0.054,0.148,0.15,0.192c0.134-0.263,0.441,0.16,0.525-0.209
				c-0.42,0.3,0.076,0.442,0.1,0.737c0.279-0.288,0.062,0.191,0.399,0.051c0.247-0.296,0.706-0.592,1.132-0.757
				c0.588,0.05,1.455-0.256,2.02-0.242c0.269,0.192,0.041,0.474,0.311,0.581c0.331,0.057-0.184-0.385,0.287-0.146l-0.063,0.052
				c0.203-0.086,0.766,0.491,1.108,0.155l-0.297,0.242c0.068,0.066,0.181,0.031,0.269,0.032c-0.049,0.101-0.008,0.232-0.173,0.237
				c0.144,0.313,0.51,0.301,0.785,0.471l-0.042-0.283c0.572,0.192,0.659,0.64,1.089,0.948l-0.156,0.125l0.291,0.147
				c-0.192,0.075-0.101,0.365,0.127,0.378l-0.882-0.253c-0.063-0.233,0.337,0.002,0.387-0.227c0.051-0.206-0.346-0.5-0.527-0.412
				c0.115,0.141,0.15,0.114,0.303,0.161c-0.153,0.237-0.342,0.042-0.561,0.088c0.073,0.055,0.107,0.204,0.183,0.154
				c-0.226-0.019-0.354-0.146-0.582-0.311c0.225,0.028,0.024-0.195,0.133-0.214c-0.176,0.174-0.431,0.085-0.669-0.178
				c-0.093-0.335-0.636-0.151-0.953-0.276c0.215-0.234,0.477-0.329,0.757-0.305c-0.206-0.214-0.264-0.153-0.5-0.321
				c-0.184,0.151-0.342,0.412-0.657,0.463l0.004-0.185c-0.301,0.025-0.31,0.363-0.66,0.313c-0.609-0.107-1.292,0.199-1.749,0.31
				l-0.092-0.159c-0.129,0.484-0.889,0.529-1.209,0.841c-0.717,0.096-1.37,0.709-1.817,0.532c-1.123,0.544-2.121,1.02-3.395,1.291
				l0.14-0.313c-0.171,0.25-0.186-0.108-0.393-0.01c0.306,0.134-0.23,0.352-0.349,0.545c-0.615-0.068-1.28,0.33-1.766,0.596
				l-0.054-0.176c-0.452,0.446-1.14,0.233-1.796,0.256c-0.083-0.065-0.216-0.218-0.411-0.191c-0.337,0.313-0.529,0.307-1.066,0.513
				c-0.41-0.031-1.059-0.084-1.461-0.289c-1.746,0.2-3.1-0.974-4.418-1.654l0.041-0.237c-1.51-0.559-2.524-2.27-3.357-3.409
				l0.387-0.053c-0.117-0.409-0.508-0.85-0.706-0.661c-0.083-0.443-0.517-1.118-0.255-1.48c0.019-0.5-0.181-0.626-0.219-1.085
				c0.341-1.06,0.491-1.438,1.015-2.279l-0.173,0.17c0.002,0.135,0.122,0.22,0.289,0.06c0.138-0.345,0.924-0.865,0.383-0.943
				c0.831-0.444,1.872-1.477,2.543-1.445c-0.101-0.082,0.026-0.175,0.043-0.276c0.491-0.235,1.029-0.394,1.08-0.77
				c0.093-0.01,0.082,0.208,0.214,0.089c0.028-0.104-0.104-0.091-0.108-0.227c0.107-0.492,0.614-1.167,0.629-2.322
				c-0.304-2.103,1.514-4.611,3.109-5.505L282.02,143c0.36-0.683,1.436-0.484,1.635-1.146c0.168,0.006,0.517-0.225,0.493-0.021
				c0.3-0.427,1.18-0.338,1.588-0.906l-0.111,0.12c0.635-0.158,0.988-0.636,1.639-0.861c-0.037,0.069-0.126,0.16-0.097,0.245
				c0.311,0,0.316-0.647,0.667-0.37c0.124-0.084-0.028-0.235-0.098-0.175c1.337-0.672,2.44-1.873,3.871-2.858
				c1.199-0.41,0.398,0.572,1.125-0.166c0.109,0.037-0.019-0.171,0.032-0.099c0.301-0.286,0.727,0.165,0.9-0.122
				c-0.201-0.205,0.121-0.198,0.076-0.35c0.816-0.132,1.027,0.129,1.617-0.197l-0.027,0.145c0.699-0.482,1.602-0.265,2.285-0.574
				c4.199,0.811,7.061,3.023,9.91,5.114c2.11,2.533,6.859,3.939,5.578,10.376c-0.987,0.993-1.05,0.947-1.913,1.809
				c0.008-0.073,0.059-0.123-0.036-0.127c0.117,0.275-0.663,0.458-0.62,0.724c-0.438,0.114-0.687,0.48-0.65,0.167
				c-0.608-0.746-0.699-0.466-0.164-0.484c0.937-0.341,0.461,0.302,0.989,0.7c-0.13-0.135-0.364-0.071-0.245,0.091l0.296,0.092
				l-0.046,0.08c0.127,0.105,0.345,0.162,0.33-0.025c0.974,1.199,2.155,2.69,2.679,4.855c0.729,2.273-0.694,4.973-2.24,6.081
				c-0.799,0.472-1.794,1.262-2.654,1.706c-2.789,1.336-6.553-0.284-8.025-2.377C300.817,164.439,301.588,164.237,302.483,164.858z"
				/>
			<path fill="#646464" d="M300.883,163.368c0.056-0.166-0.072-0.433,0.228-0.388C301.023,163.091,301.002,163.305,300.883,163.368z
				"/>
			<path fill="#646464" d="M294.172,160.231c0.008,0.044-0.123-0.014-0.154-0.027c0.082-0.046,0.114-0.193,0.212-0.152
				C294.146,160.099,294.188,160.158,294.172,160.231z"/>
			<path fill="#646464" d="M292.343,160.862c-0.018-0.133,0.33-0.377,0.55-0.479L292.343,160.862z"/>
			<path fill="#646464" d="M290.475,160.952c-0.181-0.056-0.159-0.127,0.037-0.189C290.548,160.824,290.495,160.879,290.475,160.952
				z"/>
			<path fill="#646464" d="M290.45,161.276c-0.14,0.051-0.234,0-0.326-0.048C290.165,161.333,290.427,161.052,290.45,161.276z"/>
			<path fill="#646464" d="M286.659,161.954c-0.085,0.031-0.254,0.184-0.367,0.059C286.406,162.092,286.685,161.75,286.659,161.954z
				"/>
			<path fill="#646464" d="M284.99,162.475l-0.14,0.021c-0.109-0.046-0.016-0.155,0.066-0.177L284.99,162.475z"/>
			<polygon fill="#646464" points="285.932,143.591 285.774,143.743 285.744,143.613 			"/>
			<path fill="#646464" d="M298.383,138.432c0.198-0.025,0.079,0.153,0.101,0.18C298.326,138.578,298.594,138.477,298.383,138.432z"
				/>
			<polygon fill="#646464" points="305.293,141.846 305.242,141.812 305.424,141.611 			"/>
		</g>
	</g>
</g>
<g>
	<path fill="#F2F2F2" d="M172.175,240.533c0,0-4.875,14.625,14.625,13.542c19.5-1.084-4.333,7.583,16.792,9.75
		c21.125,2.166,24.916-3.251,33.583,0.541s10.834-5.958,10.834-5.958s14.624,14.625,24.374,8.125s27.084-11.917,33.584-8.667
		s19.5,10.291,26,4.875s22.751-4.333,28.709-8.666c5.957-4.334,10.832-10.292,21.666-8.125c10.834,2.166,19.5,2.707,21.125,0.541
		s17.876-7.583,17.334-10.833c-0.543-3.25-2.709-9.208-4.334-9.208s-4.659-9.425-14.95-6.717
		c-4.614,1.214-19.543-9.017-24.05,10.508c-2.377,10.301-13.876-5.101-26.541-0.541c-13.543,4.875-14.083,5.416-19.5,5.416
		c-5.418,0-9.75,3.25-13,1.084c-3.25-2.167-7.583-9.209-16.25-1.084c-8.668,8.125-18.417,5.417-26,1.084
		c-7.584-4.334-6.501-3.792-17.334-1.625c-10.833,2.166-16.251,8.125-20.042,2.708s-10.292-8.667-16.25-5.417
		s-7.584,5.959-11.375,4.334s-10.291-7.042-10.291-7.042S185.175,221.033,172.175,240.533z"/>
	<g>
		<g>
			<path fill="#646464" d="M172.493,241.981c0.349-1.964-0.555,0.971,0.167-1.286C172.721,240.973,172.729,241.372,172.493,241.981z
				"/>
			<path fill="#646464" d="M176.858,235.423c3.823-5.766,13.158-9.117,20.495-7.563c0.852,0.185-0.312,0.388,1.567,0.813
				c3.469,0.799,6.729,4.573,10.949,6.775c4.545,3.499,9.201-1.829,12.895-3.109l-0.382,0.386c1.424-0.703,3.093-1.749,4.858-1.777
				c0.01,0.062-0.528,0.177-0.141,0.253c0.421-0.319,3.022,0.087,3.755,0.237c0.623,0.27,0.47,0.495,1.187,0.977l1.016,0.133
				c3.201,0.403,4.558,4.828,8.02,6.737c-0.192-0.014-0.579-0.145-0.322,0.067c6.431,0.701,12.894-4.816,19.879-5.42
				c-0.245,0.165-0.45,0.419-0.031,0.465c0.267-0.396,2.317-0.928,4.12-1.348c0.843,0.248,3.117-1.091,5.436-0.304l-0.209,0.03
				c1.758,0.082,2.206,1.054,3.561,1.249l0.765,0.732c0.858-0.093,1.884,1.379,3.158,1.774l0.011-0.109
				c1.143,0.461,1.604,0.979,2.691,1.354l0.077,0.095c2.505,0.924,3.945,1.543,3.98,1.157c0.816,0.574-2.513-0.612-1.237,0.244
				c4.27,1.183,8.975,1.303,13.092-0.468c4.301-1.455,6.815-5.768,11.27-7.347c1.031-0.201,1.706-0.176,1.935-0.07
				c0.905-0.309,3.331,0.329,4.114,0.662c-0.268-0.143,0.411,0.47,0.797,0.734c1.233,1.044,1.687,0.754,2.937,2.045
				c-0.602-0.39-0.869-0.454-0.781-0.189c1.311,0.767,2.868,2.329,4.722,2.077c-0.266,0.03-0.692,0.018-0.644,0.145
				c1.938-0.159,3.556-0.303,5.186-0.924l-0.567,0.378c2.763-0.414,0.669-0.688,3.071-1.049c-0.56,0.173-0.338,0.221-0.422,0.327
				c2.117-1.064,5.906-0.561,7.985-1.15c-0.122,0.056-0.077,0.108-0.077,0.108c2.342-0.473,4.774-1.271,7.236-2.325
				c0.95-0.24-0.115,0.619,2.281-0.34c-0.241-0.387,4.053-1.669,2.452-1.623c2.057-0.671,5.482-1.799,7.033-1.859
				c-0.985,0.268,1.122,0.435-0.702,0.653l1.388,0.134c-0.189,0.202-1.392,0.076-0.94,0.263c0.861-0.195,3.499-0.308,4.283-0.023
				c1.686-0.041,3.369-0.11,6.012,0.781c-1.28-0.291,0.52,0.718-0.332,0.479l3.884,0.656c0.85,0.328,0.048,0.399,1.311,0.79
				c-0.019-0.139,0.54,0.026,0.939,0.056c0.339,0.29,3.424,0.928,3.757,1.164c0.402,0.221-1.381,0.02-0.432,0.241
				c1.541-0.163,1.686-0.304,2.547-1.496l0.066,0.006c0.621-0.835,0.869-3.011,0.322-1.914c-0.24,0.664,0.339-0.186-0.12,0.779
				c-0.009-0.662,0.475-2.693,0.964-4.362c-0.102,0.596,0.03,0.563,0.082,0.83c0.398-2.307,1.323-4.763,3.163-6.917
				c-0.109-0.154-0.482,0.984-0.742,1.262c2.08-2.762,5.801-4.957,8.788-4.586c-0.472,0.07-0.275-0.278-0.237-0.222
				c1.709-0.095,1.59,0.343,2.679,0.24c0.09,0.182,1.337,0.089,2.418,0.224c0.57-0.015,0.265,0.126-0.668-0.007
				c1.719-0.217,7.147,1.947,10.224,0.781c-0.106-0.114,2.253-0.637,3.171-0.456l-0.368,0.249c0.779,0.113,2.889,0.522,2.933,0.834
				c1.9-0.367-6.962-0.768-4.494-0.621c0.597,0.058,3.486-0.18,2.898,0.143c1.677,0.301,3.451,0.774,4.627,1.982
				c-0.379-0.309-1.355-0.45-0.22,0.287c1.862,1.465,0.629,0.301,2.087,1.559l0.88,0.809c0.271-0.108,1.265,1.6,0.965,0.756
				c-0.005,0.159,0.557,0.844,0.944,1.24c0.278,0.267,0.149,0.077-0.127,0.144c0.546,0.141,0.822,0.352,0.662,0.4l-0.635,0.163
				c1.76,0.485,1.96,1.082,2.682,1.675c0.049,0.141,0.136,0.42,0.058,0.399c0.612-0.095,1.04,2.227,1.798,3.202
				c0.255,1.032,0.649,2.3,0.88,3.505c0.098,0.452,0.328,1.248-0.055,2.347c-0.372,0.59-0.747,1.041-1.006,1.128
				c-1.213,1.407-2.411,2.302-4.059,3.091c0.294-0.223,0.719-0.479,0.752-0.63c-1.072,0.431-1.249,0.68-2.13,1.231
				c0.17-0.165-2.149,0.735-3.349,1.085c-1.325,0.806-0.723,0.837-0.788,1.063c-1.501,0.129-3.801,2.137-5.46,2.526
				c0.376-0.319,1.822-1.234,0.632-0.785c-1.879,0.162-1.361,1.656-4.418,2.817l0.783,0.219c-1.306,0.274-3.711,0.933-3.511,0.479
				c-0.811,0.234-2.79-0.121-2.54,0.322c-3.849-0.411-9.253-0.703-11.406-1.854c-0.542-0.028-1.85-0.345-1.619-0.079
				c0.837,0.397,1.259,0.061,1.559,0.281c-0.479-0.076-0.602,0.021-0.663,0.068c-1.133-0.31-2.028-0.507-0.879-0.654
				c-2.528-0.739-2.707,0.271-5.727-0.154c0.139-0.185-0.092-0.235-0.984-0.153l-1.646,0.395c-1.877,0.408-1.16-0.12-1.266-0.4
				c-1.051,0.241-2.294,0.672-2.633,1.134l-1.358,0.186c0.985-0.184-0.721,0.544-1.095,0.935l0.4-0.329
				c-0.231-0.003-1.284,0.712-1.802,1.095c0.23,0.051,1.369-0.534,1.985-0.854c-0.401,0.406-1.154,0.807-1.68,1.335
				c0.035-0.387-1.567,0.887-2.29,1.389c-0.847,0.588-0.75,0.927-0.99,1.104c-0.115-0.103-1.333,1.02-0.836,0.355
				c0.245-0.256,0.72-0.38,1.093-0.847c-0.604,0.332-0.695,0.075-1.698,1.102c-0.77,0.771,0.577,0.287-1.172,1.393
				c0.386-0.387,0.394-0.54,0.663-0.88l-1.639,1.043l0.075,0.268c-0.284,0.096-0.128-0.029-0.258,0.01
				c-0.378,0.665-2.795,1.548-3.12,1.912c-0.964,0.385-2.088,0.436-3.008,0.647l0.171-0.065c-1.152,0.11-2.604,0.518-3.505,0.859
				l0.038-0.066c-0.612,0.104-2.027,0.378-2.762,0.667c-1.546,0.056-0.675-0.91-2.295-0.296c-1.53,0.273-2.308,0.899-1.666,0.96
				c-2.775,0.307-5.697,1.373-8.097,1.853c-0.311,0.242-0.066,0.217-0.754,0.564c-1.826,0.578-2.886,2.005-5.423,3.214
				c-2.299,0.974-4.609,0.948-6.337,0.571c1.299-0.058,0.101-0.263,0.094-0.412c-1.056,0.108-1.198-0.404-1.626-0.046
				c0.066,0.251-0.061,0.354,1.167,0.611c-2.694-0.097-6.445-1.306-7.665-2.019c0.618,0.352,0.084,0.229-0.459,0.102
				c0.297-0.29-1.413-1.007-2.749-1.439l-0.271,0.135l-0.733-0.593c-0.519-0.151-0.751,0.21-1.902-0.587
				c-0.027-0.114-0.061-0.232-0.26-0.4c-1.374-0.447-3.33-1.067-4.599-1.93l-0.804-0.669c-0.536-0.132-1.525-0.072-0.578,0.202
				c-2.121-0.676-3.826-0.521-4.603-0.803c-4.247,0.953-10.359,2.674-15.136,4.535l0.079-0.218c-1.34,0.361-0.546,0.557-1.477,0.811
				c0.346-0.327-1.111,0.072-0.191-0.537c-1.906,0.591-2.201,1.325-3.322,1.93c-0.079,0.285,0.863-0.576,0.767-0.205
				c-0.175,0.139-2.503,1.061-2.609,1.503c-0.488,0.122-0.285-0.295-0.116-0.544l-0.96,0.734c-1.508,0.344,2.598-2.25,1.006-1.951
				l-0.969,0.576c-1.136,0.186,2.452-1.769-0.125-0.546c-1,0.764-1.647,1.712-0.624,1.311c-2.217,1.374-0.4,1.286-3.033,2.729
				c-0.749,0.215,2.091-1.23,1.366-1.179c-1.154,0.361-2.397,1.679-3.694,1.869c1.466-0.279,0.396,0.397-0.575,0.725
				c-1.648,0.221,0.97-0.503-1.303-0.128c-0.333,0.233-2.496,0.528-0.62,0.542c-0.869,0.596-2.422-0.129-3.697,0.059
				c-0.655-0.4,2.391-0.453,0.006-0.924c0.333,0.398-2.989-0.265-1.861,0.47c-0.912-0.333-0.895-0.641-0.21-0.586
				c-1.194-0.576-3.244-0.577-3.368-1.355l-0.545,0.1c-0.342-0.252-0.815-0.604-1.315-1.07c-1.018-0.502-3.36-1.517-3.009-1.862
				c-0.332-0.151-2.41-1.655-1.798-0.813c1.208,1.08,1.633,0.869,2.159,1.715c-0.764-0.92-1.964-1.246-2.783-1.713l-0.012-0.24
				c-0.494-0.265-1.468-1.083-1.858-1.152c0.398,0.186,0.304-0.054-0.007-0.362l-0.628-0.153c-1.801-1.368-0.086-0.701-1.767-2.121
				l1.379,0.958c-0.31-0.214-0.667-0.869-1.513-1.567c1.238-0.36-2.772,0.807,2.775-0.809v0.001v0.001l0,0.002l0,0.003l0.001,0.008
				l0.003,0.015l0.005,0.029l0.01,0.062l0.021,0.119l0.039,0.24l0.055,0.513c0.033,0.35,0.034,0.681,0.061,0.905
				c-0.447,1.342-0.484,0.46-0.879,1.818c0.199-0.589,0.369-1.172,0.494-1.756c-0.008-0.28-0.739,0.961-1.798,2.459
				c-0.557,1.007-1.797,2.671-0.272,1.312c-0.637,0.794-1.955,1.522-1.41,0.876c-1.876,1.401,0.49,0.091-1.224,1.317
				c-0.849,0.363-3.579,0.71-4.958,0.16c0.665-0.08,1.33-0.198,1.949-0.4c-0.425,0.07-0.843,0.011-1.265,0.015
				c1.607-0.311-0.792-0.277,0.119-0.622c-0.786-0.066-1.746-0.153-2.491-0.306c2.083,1.324-2.791-0.134-2.214,0.597
				c-2.436-0.681-1.213-1.884-4.071-1.439c0.427,0.176-0.854,0.467,0.757,0.457c-1.587-0.193-1.067,0.394-2.987,0.229
				c1.462-0.306-1.622-0.443,0.507-0.877c-0.137,0.191,1.191,0.091,1.5,0.105c-0.672-0.247,0.182-0.563-1.582-0.555
				c-1.083,0.088-2.601,0.266-2.351,0.523c0.083,0.282,1.667-0.193,0.998,0.174c-2.159,0.32-2.618-0.056-3.469,0.589
				c1.409-0.224,1.795,0.042,1.794,0.253l-1.616,0.334l0.291-0.24c-2.692,0.189-0.721,0.479-3.359,0.726l-1.281-0.267
				c0.602-0.386,3.834-0.283,3.295-0.784c-1.686,0.183-2.225,0.546-3.856,0.544c0.354-0.082,0.848-0.133,1.195-0.224
				c-0.621,0.031-1.286-0.608-3.691-0.028c-1.253,0.242-0.324,0.218-0.343,0.429c-2.763,0.189-3.594,0.406-5.38,0.412
				c0.371-0.392-3.148-0.102-1.172-0.473c0.892,0.285,4.91,0.245,5.866-0.222c-1.026-0.432,2.17-0.041,2.716-0.598
				c-2.194,0.15-2.113-0.355-2.479-0.639c-0.604,0.021-1.185,0.156-1.544,0.215c-0.249,0.299,0.544,0.277,0.602,0.578
				c-2.453,0.005-4.809,0.123-6.175,0.353c-0.813-0.186-0.54-0.465,0.426-0.446c-2.917-0.038-5.992-0.294-8.75-0.737
				c1.733,0.74-3.114-0.367-1.958,0.201c1.482,0.378,2.736,0.863,1.874,0.972c-0.946-0.169,0.062-0.199-0.322-0.36
				c-1.255,0.074-1.791-0.711-3.077-0.589c2.778,0.443,0.65-0.455,1.233-0.711c-1.958-0.215,0.134-0.204-1.736-0.697
				c-1.561,0.012-5.436-1.763-4.396-5.001c0.595-1.43,1.542-2.931,0.497-3.004c-1.188-0.434-2.894-0.317-3.989-0.341
				c-1.208-0.168-0.393-0.621-1.721-0.652c-1.559,0.075,1.17,0.406-1.14,0.312l0.218-0.094c-0.71,0.104-4.294-0.171-5.048,0.234
				l0.769-0.382c-0.435-0.088-0.849-0.024-1.22-0.014c-0.002-0.151-0.489-0.339,0.228-0.363c-1.382-0.421-2.995-0.396-4.479-0.967
				c0.282,0.2,0.554,0.469,0.865,0.619c-2.672-0.698-4.285-2.019-5.813-4.236l0.274-0.068c-0.36-0.396-0.551-0.896-0.838-1.354
				c0.355,0.263,0.043-1.11-0.282-1.881c0.476,1.277,1.08,2.493,2.042,3.347c0.473,0.976-0.919-0.782-0.769-0.093
				c0.052,0.679,1.833,2.487,2.392,2.347c-0.765-0.502-0.753-0.572-1.354-0.985c0.078-0.485,0.967,0.571,1.714,0.65
				c-0.419-0.209-0.822-0.715-0.951-0.717c0.781,0.438,1.474,0.996,2.866,1.513c-0.987-0.259,0.417,0.426,0.028,0.376
				c0.221-0.205,1.578,0.156,3.4,0.567c1.292,0.59,3.539,0.077,5.717,0.092c-0.87,0.331-2.022,0.62-3.389,0.744
				c1.402,0.174,1.561-0.016,2.978,0.144c0.673-0.229,1.131-0.688,2.997-0.861l0.104,0.242c1.694-0.093,1.68-0.558,3.957-0.146
				c0.797,0.171,2.555,0.701,2.579,2.438c-0.093,1.312-0.631,2.011-0.838,2.786c-0.608,1.503,0.166,2.338,1.387,2.915l-0.02,0.259
				c1.438,0.218,4.813,1.141,6.9,1.105c3.468,0.589,7.591,0.348,9.372,0.735c6.254,0.023,11.332-1.387,18.09-1.633l-1.127,0.365
				c1.193-0.262,0.781,0.164,1.946,0.167c-1.347-0.383,1.657-0.281,2.553-0.255c3.017,1.074,6.306,2.547,8.148,1.388l0.149,0.203
				c0.906-0.534,1.763-1.216,2.576-2.222c0.413-0.488,0.775-1.074,1.112-1.691l0.451-0.974l0.185-0.505l0.076-0.241l0.007-0.024
				l0.004-0.013l0.001-0.003v-0.002c3.739-1.088,1.038-0.301,1.872-0.543l0.006,0.006l0.048,0.05l0.096,0.099
				c0.185,0.315,0.442,0.873,1.17,1.474c1.55,0.814,2.224,1.407,4.383,2.652c1.462,1.067,3.921,2.65,5.536,3.478
				c3.147,1.142,6.488,1.802,9.39,0.859c2.532-0.926,6.083-3.703,9.299-5.152l0.608,0.032c6.337-3.608,15.076-5.723,21.558-5.992
				l-0.62,0.499c1.964,0.002,4.655,0.316,4.224-0.1c2.398,0.725,4.76,1.858,5.728,2.674c1.684,0.919,2.206,0.814,3.669,1.396
				c3.394,1.646,4.749,2.134,8.104,2.83l-0.82-0.206c-0.39-0.008-0.48,0.22,0.354,0.433c1.299,0.285,4.589,0.709,3.391,0.052
				c1.717,0.294,3.721-0.017,5.121-0.99c1.364-1.11,4.159-2.875,6.006-3.147c-0.38-0.045,0.582-0.388,0.96-0.622
				c3.508-1.113,7.182-1.331,9.835-2.073c0.55-0.011-0.812,0.412,0.569,0.197c0.805-0.198-0.019-0.208,0.972-0.465
				c5.687-1.292,10.379-1.402,14.126-5.251c3.351-2.852,7.616-6.142,12.813-6.688c5.251-0.684,9.722,0.979,13.774,1.395
				l-0.112,0.101c2.831-0.006,6.56,1.288,8.721,0.553c0.676,0.166,2.342-0.062,1.917,0.194c1.331-0.404,1.747-0.047,3.029-1.215
				c1.904-1.324,3.497-1.879,4.967-2.852c-0.281,0.121-0.435,0.224-0.734,0.424c3.164-1.249,5.718-2.729,8.803-4.166
				c-0.268,0.216-0.808,0.546-0.85,0.694c1.305-0.427,2.452-1.94,3.254-1.877c0.555-0.416,0.215-0.512-0.104-0.255
				c0.979-0.359,0.704-1.295,1.641-0.812c-1.067-0.388-0.61-1.63-1.082-2.429c-0.539-1.766-1.294-3.663-2.202-4.957
				c-3.392-1.727-5.25-6.201-8.47-6.717c-4.538-1.16-0.094-1.284-4.002-0.934c-0.343-0.087-0.21,0.229-0.278,0.116
				c-1.278,0.434-3.011,0.014-4.297,0.049c0.506,0.422-0.915,0.065-0.967,0.248c-3.56-0.948-4.055-1.517-6.756-1.592l0.219-0.155
				c-3.121-0.041-6.505,0.537-7.85,2.501c-3.024,2.672-3.419,5.999-5.369,11.276c-0.664,1.491-2.692,2.731-4.421,2.781
				c-1.586-0.007-2.899-0.345-4.025-0.729c-2.282-0.766-4.249-1.688-6.223-2.396c-3.908-1.459-7.83-2.238-11.314-1.128
				c-3.835,1.234-8.041,2.996-12.252,4.411c-4.45,1.924-9.73,1.008-12.961,2.025c-1.996,0.396-4.046,1.379-7.207,1.15
				c-3.685-0.556-5.192-2.996-6.618-3.907c-2.899-2.498-5.396-1.937-8.58,0.57c-2.909,2.781-7.638,6.066-12.62,6.5
				c-4.67-0.177-4.995-0.206-9.801-1.226c0.213-0.014,0.507,0.059,0.217-0.108c-0.367,0.339-3.247-1.064-3.778-0.963
				c-3.2-1.387-5.954-3.332-8.441-4.415c-2.01-1.101-4.619-0.218-8.073,0.438c1.029-0.257,1.476-0.677,0.256-0.398l-1.24,0.517
				l-0.234-0.065c-0.839,0.231-1.729,0.611-0.824,0.556c-4.042,0.793-7.545,2.155-11.549,3.72c-2.011,0.673-4.132,1.775-7.434,1.371
				c-3.74-0.746-5.069-3.989-5.977-4.867c-2.374-2.601-5.681-4.595-8.877-4.134c-3.158,0.275-6.125,3.057-10.395,5.266
				c-2.516,1.416-6.459-0.013-8.284-1.321c-2.231-1.306-4.288-2.745-6.042-4.044c-8.657-7.691-22.493-1.952-28.285,8.615
				C173.687,241.563,173.473,239.442,176.858,235.423z"/>
			<path fill="#646464" d="M172.335,244.368c-0.236,0.42-0.147,1.856-0.551,0.745C171.962,244.95,172.158,244.221,172.335,244.368z"
				/>
			<path fill="#646464" d="M197.755,264.167c0.068-0.042,0.56,0.237,0.683,0.302c-0.506-0.124-1.026-0.085-1.405-0.312
				C197.557,264.304,197.501,264.179,197.755,264.167z"/>
			<path fill="#646464" d="M207.946,265.632c-0.167,0.19-2.344,0.141-3.627,0.052C205.531,265.664,206.735,265.689,207.946,265.632z
				"/>
			<path fill="#646464" d="M217.477,266.415c0.836,0.1,0.614,0.193-0.505,0.254C216.886,266.581,217.253,266.513,217.477,266.415z"
				/>
			<path fill="#646464" d="M218.133,265.978c0.792-0.047,1.193,0.027,1.585,0.09C219.681,265.934,217.887,266.289,218.133,265.978z"
				/>
			<path fill="#646464" d="M237.215,266.811c0.523,0.233,1.831,0.368,2.374,0.645C238.938,267.29,236.679,266.944,237.215,266.811z"
				/>
			<path fill="#646464" d="M247.926,263.393c0.237-0.289,0.319-0.407,0.502-0.788c0.414-0.532,0.164,0.135-0.125,0.632
				L247.926,263.393z"/>
			<path fill="#646464" d="M404.625,247.208c0.032-0.021-0.58,0.596-0.946,0.873l0.085-0.279
				C404.11,247.584,404.601,247.168,404.625,247.208z"/>
			<path fill="#646464" d="M377.598,225.556c-0.328,1.029-0.453,0.631-0.55,0.789C377.421,225.437,377.104,226.753,377.598,225.556z
				"/>
			<polygon fill="#646464" points="344.509,231.566 344.799,231.456 344.824,231.829 			"/>
		</g>
	</g>
</g>
</svg>
